<svg width="1440" height="516" viewBox="0 0 1440 516" fill="none" xmlns="http://www.w3.org/2000/svg">
<path d="M785.468 264.234C660.425 257.745 541.231 288.838 422.162 309.883C381.248 317.12 337.837 323.282 295.264 319.463C227.187 313.357 176.16 283.049 144.145 251.013C112.131 218.977 93.1183 183.506 56.6272 152.815C41.7704 140.312 22.5617 128.379 0 119.603V516H1065.7C1090.49 463.124 1091.49 406.746 1045.88 358.492C997.013 306.811 895.12 269.921 785.468 264.234Z" fill="white"/>
<path d="M1341.71 34.5378C1311.89 65.9285 1295.37 104.927 1279.72 143.193C1264.07 181.459 1248.31 220.58 1219.59 252.734C1190.88 284.889 1146.32 309.435 1099.36 306.726C1007.37 301.409 947.027 213.919 861.104 190.737C833.447 183.272 801.101 184.229 778.04 199.354C745.776 220.508 742.007 263.51 760.248 294.717C778.489 325.925 813.399 347.263 849.006 363.956C876.356 376.779 904.934 387.647 934.35 396.426C971.423 407.477 1011.6 416.094 1039.38 439.978C1074.58 470.259 1067.36 493.959 1048.04 516H1440V0H1385.97C1369.4 9.6046 1354.38 21.1953 1341.71 34.5378Z" fill="#404042"/>
</svg>
