<svg width="1342" height="705" viewBox="0 0 1342 705" fill="none" xmlns="http://www.w3.org/2000/svg">
<path d="M60 504C60 520.569 46.5685 534 30 534C13.4315 534 0 520.569 0 504C0 487.431 13.4315 474 30 474C46.5685 474 60 487.431 60 504ZM5.46465 504C5.46465 517.55 16.4495 528.535 30 528.535C43.5505 528.535 54.5353 517.55 54.5353 504C54.5353 490.45 43.5505 479.465 30 479.465C16.4495 479.465 5.46465 490.45 5.46465 504Z" fill="#E0E0E0"/>
<path d="M1090 430.5C1090 443.479 1079.48 454 1066.5 454C1053.52 454 1043 443.479 1043 430.5C1043 417.521 1053.52 407 1066.5 407C1079.48 407 1090 417.521 1090 430.5ZM1047.28 430.5C1047.28 441.115 1055.89 449.719 1066.5 449.719C1077.11 449.719 1085.72 441.115 1085.72 430.5C1085.72 419.885 1077.11 411.281 1066.5 411.281C1055.89 411.281 1047.28 419.885 1047.28 430.5Z" fill="#E0E0E0"/>
<path d="M492 681.5C492 694.479 481.479 705 468.5 705C455.521 705 445 694.479 445 681.5C445 668.521 455.521 658 468.5 658C481.479 658 492 668.521 492 681.5ZM449.281 681.5C449.281 692.115 457.885 700.719 468.5 700.719C479.115 700.719 487.719 692.115 487.719 681.5C487.719 670.885 479.115 662.281 468.5 662.281C457.885 662.281 449.281 670.885 449.281 681.5Z" fill="#E0E0E0"/>
<g style="mix-blend-mode:hard-light">
<path d="M1342 185C1342 201.569 1328.57 215 1312 215C1295.43 215 1282 201.569 1282 185C1282 168.431 1295.43 155 1312 155C1328.57 155 1342 168.431 1342 185ZM1286.07 185C1286.07 199.319 1297.68 210.927 1312 210.927C1326.32 210.927 1337.93 199.319 1337.93 185C1337.93 170.681 1326.32 159.073 1312 159.073C1297.68 159.073 1286.07 170.681 1286.07 185Z" fill="#E0E0E0"/>
</g>
<path d="M94.5902 28.8335C93.4702 28.8335 92.6602 29.6435 92.6602 30.7535C92.6602 31.8735 93.4702 32.6835 94.5802 32.6835C95.7002 32.6835 96.5002 31.8735 96.5102 30.7635C96.5102 29.6435 95.7102 28.8335 94.5902 28.8335Z" fill="#E0E0E0"/>
<path d="M113.85 28.8334C112.73 28.8134 111.89 29.6034 111.87 30.7134C111.85 31.8334 112.65 32.6734 113.75 32.6934C114.87 32.7134 115.7 31.9234 115.72 30.8134C115.75 29.6834 114.96 28.8534 113.85 28.8334Z" fill="#E0E0E0"/>
<path d="M133.04 28.8331C131.92 28.8231 131.1 29.6331 131.09 30.7431C131.08 31.8631 131.89 32.6831 133 32.6931C134.12 32.7031 134.93 31.9031 134.94 30.7831C134.95 29.6531 134.16 28.8431 133.04 28.8331Z" fill="#E0E0E0"/>
<path d="M46.53 42.3031C47.65 42.3031 48.46 41.5031 48.46 40.3831C48.46 39.2631 47.66 38.4531 46.54 38.4531C45.42 38.4531 44.61 39.2631 44.61 40.3731C44.6 41.4831 45.42 42.2931 46.53 42.3031Z" fill="#E0E0E0"/>
<path d="M65.72 42.3035C66.84 42.3135 67.66 41.5235 67.68 40.4035C67.69 39.2735 66.9 38.4535 65.79 38.4435C64.67 38.4335 63.84 39.2235 63.83 40.3335C63.81 41.4535 64.62 42.2835 65.72 42.3035Z" fill="#E0E0E0"/>
<path d="M84.9501 38.4435C83.8401 38.4535 83.0301 39.2735 83.0401 40.3935C83.0501 41.5035 83.8801 42.3135 84.9901 42.3035C86.1101 42.2935 86.9001 41.4735 86.8901 40.3535C86.8901 39.2335 86.0701 38.4335 84.9501 38.4435Z" fill="#E0E0E0"/>
<path d="M104.27 38.4432C103.15 38.4132 102.3 39.1932 102.26 40.2932C102.23 41.4132 103.01 42.2632 104.11 42.3032C105.23 42.3332 106.08 41.5532 106.11 40.4532C106.15 39.3132 105.38 38.4732 104.27 38.4432Z" fill="#E0E0E0"/>
<path d="M123.45 38.4435C122.33 38.4335 121.5 39.2335 121.49 40.3335C121.48 41.4535 122.28 42.2835 123.39 42.2935C124.51 42.3035 125.33 41.5035 125.34 40.3935C125.35 39.2735 124.56 38.4535 123.45 38.4435Z" fill="#E0E0E0"/>
<path d="M56.15 51.9132C57.27 51.9032 58.07 51.0932 58.06 49.9732C58.06 48.8532 57.25 48.0532 56.13 48.0532C55.01 48.0532 54.21 48.8732 54.21 49.9932C54.22 51.1032 55.04 51.9132 56.15 51.9132Z" fill="#E0E0E0"/>
<path d="M73.4403 49.8435C73.3803 50.9735 74.1403 51.8435 75.2303 51.9135C76.3503 51.9735 77.2303 51.2135 77.2903 50.1235C77.3503 48.9935 76.6003 48.1235 75.5103 48.0635C74.3703 47.9935 73.5003 48.7535 73.4403 49.8435Z" fill="#E0E0E0"/>
<path d="M94.66 48.0531C93.54 48.0231 92.69 48.7931 92.66 49.9031C92.63 51.0231 93.41 51.8731 94.51 51.9131C95.63 51.9431 96.48 51.1631 96.51 50.0631C96.54 48.9231 95.77 48.0831 94.66 48.0531Z" fill="#E0E0E0"/>
<path d="M113.77 48.0533C112.66 48.0633 111.86 48.8933 111.88 50.0133C111.89 51.1233 112.72 51.9233 113.84 51.9133C114.95 51.8933 115.74 51.0733 115.73 49.9533C115.71 48.8333 114.89 48.0433 113.77 48.0533Z" fill="#E0E0E0"/>
<path d="M65.7501 61.5233C66.8701 61.5233 67.6701 60.7233 67.6801 59.6033C67.6801 58.4833 66.8801 57.6733 65.7601 57.6733C64.6401 57.6733 63.8301 58.4833 63.8301 59.5933C63.8301 60.7033 64.6401 61.5233 65.7501 61.5233Z" fill="#E0E0E0"/>
<path d="M84.9299 57.6635C83.8199 57.6835 83.0199 58.5135 83.0399 59.6335C83.0599 60.7435 83.8899 61.5435 85.0099 61.5235C86.1199 61.5035 86.9099 60.6835 86.8899 59.5535C86.8799 58.4335 86.0599 57.6435 84.9299 57.6635Z" fill="#E0E0E0"/>
<path d="M104.23 57.6632C103.11 57.6532 102.28 58.4532 102.27 59.5532C102.26 60.6732 103.06 61.5032 104.17 61.5132C105.29 61.5232 106.11 60.7332 106.12 59.6132C106.13 58.4932 105.34 57.6732 104.23 57.6632Z" fill="#E0E0E0"/>
<path d="M75.2899 71.1335C76.4099 71.1635 77.2599 70.3836 77.2899 69.2836C77.3199 68.1536 76.5499 67.3136 75.4499 67.2836C74.3299 67.2536 73.4799 68.0335 73.4399 69.1335C73.3999 70.2435 74.1899 71.0935 75.2899 71.1335Z" fill="#E0E0E0"/>
<path d="M94.6303 67.2733C93.5103 67.2533 92.6703 68.0433 92.6503 69.1533C92.6303 70.2733 93.4303 71.1133 94.5303 71.1333C95.6503 71.1533 96.4803 70.3633 96.5003 69.2533C96.5303 68.1233 95.7403 67.2933 94.6303 67.2733Z" fill="#E0E0E0"/>
<path d="M84.9402 76.8832C83.8302 76.9032 83.0302 77.7232 83.0502 78.8432C83.0702 79.9532 83.9002 80.7532 85.0102 80.7332C86.1202 80.7132 86.9102 79.8932 86.9002 78.7732C86.8802 77.6632 86.0602 76.8632 84.9402 76.8832Z" fill="#E0E0E0"/>
<path d="M65.7602 3.86342C66.8802 3.86342 67.6802 3.05342 67.6802 1.92342C67.6802 0.803418 66.8702 0.00341797 65.7502 0.00341797C64.6302 0.00341797 63.8202 0.823418 63.8302 1.93342C63.8302 3.05342 64.6502 3.86342 65.7602 3.86342Z" fill="#E0E0E0"/>
<path d="M86.8902 2.06332C86.9502 0.933318 86.2002 0.0633171 85.1102 0.00331708C83.9802 -0.0566829 83.1102 0.703318 83.0502 1.79332C82.9902 2.91332 83.7502 3.79332 84.8402 3.85332C85.9602 3.92332 86.8402 3.15332 86.8902 2.06332Z" fill="#E0E0E0"/>
<path d="M104.23 0.00351068C103.11 -0.00648932 102.28 0.793512 102.27 1.89351C102.26 3.01351 103.06 3.84351 104.17 3.85351C105.29 3.86351 106.11 3.07351 106.12 1.95351C106.13 0.833511 105.34 0.0235107 104.23 0.00351068Z" fill="#E0E0E0"/>
<path d="M56.1801 13.4734C57.2901 13.4534 58.0801 12.6334 58.0701 11.5134C58.0601 10.4034 57.2401 9.60341 56.1101 9.62341C55.0001 9.64341 54.2001 10.4634 54.2201 11.5834C54.2301 12.6834 55.0601 13.4834 56.1801 13.4734Z" fill="#E0E0E0"/>
<path d="M75.4 9.61338C74.28 9.60338 73.46 10.3934 73.44 11.5034C73.43 12.6234 74.22 13.4534 75.33 13.4634C76.45 13.4734 77.27 12.6834 77.29 11.5634C77.3 10.4534 76.51 9.63338 75.4 9.61338Z" fill="#E0E0E0"/>
<path d="M94.6002 9.61337C93.4802 9.60337 92.6602 10.4034 92.6602 11.5234C92.6502 12.6434 93.4602 13.4634 94.5702 13.4734C95.6902 13.4834 96.5002 12.6734 96.5102 11.5634C96.5102 10.4334 95.7202 9.62337 94.6002 9.61337Z" fill="#E0E0E0"/>
<path d="M113.8 9.61328C112.68 9.61328 111.88 10.4233 111.88 11.5433C111.88 12.6633 112.7 13.4733 113.81 13.4633C114.93 13.4633 115.73 12.6533 115.73 11.5233C115.72 10.4133 114.92 9.61328 113.8 9.61328Z" fill="#E0E0E0"/>
<path d="M46.5101 23.0832C47.6301 23.0932 48.4401 22.2932 48.4501 21.1732C48.4601 20.0532 47.6601 19.2332 46.5501 19.2232C45.4301 19.2132 44.6101 20.0232 44.6001 21.1332C44.6001 22.2432 45.4101 23.0732 46.5101 23.0832Z" fill="#E0E0E0"/>
<path d="M65.7303 23.0832C66.8503 23.0932 67.6603 22.2932 67.6703 21.1732C67.6803 20.0532 66.8803 19.2332 65.7703 19.2232C64.6503 19.2132 63.8303 20.0232 63.8203 21.1332C63.8203 22.2432 64.6303 23.0732 65.7303 23.0832Z" fill="#E0E0E0"/>
<path d="M85.0499 19.2235C83.9299 19.1935 83.0799 19.9735 83.0399 21.0735C83.0099 22.1935 83.7899 23.0435 84.8899 23.0835C86.0099 23.1235 86.8599 22.3335 86.8899 21.2335C86.9299 20.0935 86.1599 19.2635 85.0499 19.2235Z" fill="#E0E0E0"/>
<path d="M104.2 19.2231C103.08 19.2231 102.27 20.0331 102.27 21.1431C102.27 22.2631 103.08 23.0731 104.19 23.0831C105.31 23.0831 106.12 22.2831 106.12 21.1631C106.12 20.0331 105.32 19.2231 104.2 19.2231Z" fill="#E0E0E0"/>
<path d="M123.43 19.2232C122.31 19.2132 121.49 20.0232 121.48 21.1332C121.47 22.2532 122.28 23.0732 123.39 23.0832C124.51 23.0932 125.32 22.2832 125.33 21.1732C125.34 20.0432 124.55 19.2332 123.43 19.2232Z" fill="#E0E0E0"/>
<path d="M36.9101 32.6934C38.0301 32.7034 38.8401 31.8934 38.8501 30.7834C38.8601 29.6634 38.0601 28.8434 36.9501 28.8434C35.8301 28.8334 35.0101 29.6434 35.0001 30.7534C34.9901 31.8534 35.8001 32.6834 36.9101 32.6934Z" fill="#E0E0E0"/>
<path d="M56.0702 32.6934C57.1902 32.7334 58.0402 31.9434 58.0702 30.8434C58.1002 29.7134 57.3302 28.8734 56.2302 28.8334C55.1102 28.8034 54.2602 29.5834 54.2202 30.6834C54.1802 31.8034 54.9702 32.6534 56.0702 32.6934Z" fill="#E0E0E0"/>
<path d="M75.3903 28.8331C74.2703 28.8231 73.4403 29.6231 73.4303 30.7331C73.4203 31.8531 74.2203 32.6831 75.3303 32.6931C76.4503 32.7031 77.2703 31.9031 77.2803 30.7931C77.3003 29.6631 76.5103 28.8431 75.3903 28.8331Z" fill="#E0E0E0"/>
<path d="M129.84 259.03L136.68 265.86L138.69 263.85L129.84 255L121 263.85L123.01 265.86L129.84 259.03Z" fill="#E0E0E0"/>
<path d="M129.84 270.96L136.68 277.79L138.69 275.78L129.84 266.93L121 275.78L123.01 277.79L129.84 270.96Z" fill="#E0E0E0"/>
<path d="M129.84 283.03L136.68 289.87L138.69 287.85L129.84 279.01L121 287.85L123.01 289.87L129.84 283.03Z" fill="#E0E0E0"/>
<path d="M129.84 235.03L136.68 241.86L138.69 239.85L129.84 231L121 239.85L123.01 241.86L129.84 235.03Z" fill="#E0E0E0"/>
<path d="M129.84 246.96L136.68 253.79L138.69 251.78L129.84 242.93L121 251.78L123.01 253.79L129.84 246.96Z" fill="#E0E0E0"/>
</svg>
