<svg width="323" height="246" viewBox="0 0 323 246" fill="none" xmlns="http://www.w3.org/2000/svg">
<path d="M298.123 281.921C314.853 268.591 324.083 248.561 322.543 228.961C320.363 201.311 298.913 181.681 271.133 170.031C260.963 165.761 250.283 162.291 240.763 157.011C217.783 144.261 218.853 124.311 208.353 104.861C180.083 52.4611 101.203 90.6711 52.6133 78.3911C20.9933 70.4011 -1.14675 44.4411 -2.25675 16.2711C-2.33675 14.2511 -2.34675 12.1211 -3.51675 10.3611C-4.32674 9.15105 -5.61675 8.24106 -6.92675 7.43106C-27.3768 -5.26894 -58.1167 -0.568937 -76.3567 13.0611C-96.5267 28.1411 -105.757 51.3211 -111.217 73.8611C-115.577 91.8511 -118.077 110.561 -113.747 128.561C-102.007 177.421 -44.7867 208.081 -20.9267 253.541C-15.7767 263.361 -12.2167 273.811 -6.10674 283.211C9.43326 307.111 39.4633 321.211 69.4232 330.311C106.363 341.531 147.843 346.891 184.283 334.521C207.623 326.601 227.303 311.941 250.803 304.381C267.173 299.091 285.293 292.141 298.123 281.921Z" fill="white"/>
</svg>
