<svg width="220" height="231" viewBox="0 0 220 231" fill="none" xmlns="http://www.w3.org/2000/svg">
<path d="M3.28476 242.158C-1.73524 220.578 3.28473 197.108 16.4447 179.308C31.1147 159.468 54.6947 151.118 75.4247 139.408C85.2647 133.838 94.8447 127.298 102.215 118.608C105.885 114.278 108.895 109.468 111.125 104.248C113.475 98.7181 114.985 92.8881 116.205 87.0281C118.665 75.1381 120.095 62.9781 124.795 51.6781C129.125 41.2681 135.655 31.7781 143.775 23.9581C161.155 7.20812 185.625 -0.911906 209.595 1.74809C212.645 2.08809 215.695 2.60813 218.705 3.21813C219.275 3.33813 219.525 2.47812 218.945 2.33812C195.505 -3.62188 169.205 2.41809 150.125 17.0581C141.325 23.8181 133.895 32.3281 128.385 41.9581C125.595 46.8181 123.305 51.9681 121.565 57.2981C119.655 63.1781 118.445 69.2481 117.325 75.3181C115.055 87.6081 113.075 100.328 106.395 111.138C100.185 121.188 90.8047 128.808 80.8947 135.008C60.5147 147.758 36.1947 155.198 19.8547 173.668C5.3047 190.118 -1.6653 212.968 1.2247 234.738C1.5647 237.298 2.06472 239.828 2.68472 242.328C2.76472 242.718 3.37476 242.548 3.28476 242.158Z" fill="white"/>
<path d="M43.6346 216.498C40.4946 209.308 41.1945 201.158 44.2245 194.058C47.3645 186.678 52.8846 180.768 59.3346 176.108C72.8246 166.368 89.3046 162.028 103.085 152.778C109.775 148.288 115.415 142.628 119.685 135.788C123.865 129.088 126.765 121.658 129.005 114.098C133.975 97.3181 135.595 79.5581 142.485 63.3481C148.245 49.7981 158.775 36.7781 173.535 32.8181C175.245 32.3581 176.985 31.9881 178.745 31.7481C179.125 31.6981 179.035 31.0581 178.655 31.0781C163.745 32.1081 151.605 43.9381 144.755 56.4281C136.175 72.0781 134.145 90.1781 129.875 107.238C127.885 115.178 125.405 123.048 121.665 130.358C117.885 137.748 112.785 144.288 106.205 149.388C92.7146 159.848 75.7345 164.188 61.5445 173.478C54.9345 177.808 48.9146 183.238 45.0746 190.228C41.5146 196.698 39.6546 204.448 41.2846 211.758C41.6746 213.518 42.2846 215.208 43.0746 216.838C43.2446 217.238 43.8046 216.888 43.6346 216.498Z" fill="white"/>
<path d="M168.065 71.7582C159.395 74.2282 152.395 80.7782 147.335 88.0182C141.855 95.8782 138.365 104.888 135.825 114.078C132.855 124.798 130.925 135.808 127.385 146.368C125.685 151.438 123.635 156.438 120.865 161.018C118.405 165.078 115.405 168.808 111.945 172.058C105.225 178.358 96.4651 182.838 87.0751 182.518C85.9151 182.478 84.7551 182.368 83.6051 182.198C83.0651 182.118 82.8151 182.918 83.3751 183.038C92.5151 184.988 101.805 181.608 109.055 176.098C112.855 173.208 116.195 169.758 119.045 165.928C122.065 161.868 124.395 157.408 126.315 152.738C130.595 142.338 132.745 131.238 135.405 120.358C137.765 110.668 140.655 101.108 145.735 92.4582C150.375 84.5582 156.705 77.7282 165.045 73.7282C166.085 73.2282 167.145 72.7782 168.215 72.3682C168.605 72.2182 168.465 71.6382 168.065 71.7582Z" fill="white"/>
</svg>
