<svg width="1440" height="675" viewBox="0 0 1440 675" fill="none" xmlns="http://www.w3.org/2000/svg">
<g clip-path="url(#clip0_1033_6035)">
<rect width="1440" height="675" fill="#B6000D"/>
<g opacity="0.2">
<path d="M600 0H0V375H600V0Z" fill="#D60F1D"/>
<path d="M6.375 68.625V6.375L68.625 68.625H6.375Z" fill="#851C23"/>
<path d="M81.375 68.625V6.375L143.625 68.625H81.375Z" fill="#851C23"/>
<path d="M156.375 68.625V6.375L218.625 68.625H156.375Z" fill="#450408"/>
<path d="M231.375 68.625V6.375L293.625 68.625H231.375Z" fill="#450408"/>
<path d="M306.375 68.625V6.375L368.625 68.625H306.375Z" fill="#851C23"/>
<path d="M381.375 68.625V6.375L443.625 68.625H381.375Z" fill="#851C23"/>
<path d="M456.375 68.625V6.375L518.625 68.625H456.375Z" fill="#851C23"/>
<path d="M531.375 68.625V6.375L593.625 68.625H531.375Z" fill="#851C23"/>
<path d="M6.375 143.625V81.375L68.625 143.625H6.375Z" fill="#450408"/>
<path d="M81.375 143.625V81.375L143.625 143.625H81.375Z" fill="#450408"/>
<path d="M156.375 143.625V81.375L218.625 143.625H156.375Z" fill="#851C23"/>
<path d="M231.375 143.625V81.375L293.625 143.625H231.375Z" fill="#851C23"/>
<path d="M306.375 143.625V81.375L368.625 143.625H306.375Z" fill="#851C23"/>
<path d="M381.375 143.625V81.375L443.625 143.625H381.375Z" fill="#450408"/>
<path d="M456.375 143.625V81.375L518.625 143.625H456.375Z" fill="#851C23"/>
<path d="M531.375 143.625V81.375L593.625 143.625H531.375Z" fill="#450408"/>
<path d="M6.375 218.625V156.375L68.625 218.625H6.375Z" fill="#450408"/>
<path d="M81.375 218.625V156.375L143.625 218.625H81.375Z" fill="#851C23"/>
<path d="M156.375 218.625V156.375L218.625 218.625H156.375Z" fill="#851C23"/>
<path d="M231.375 218.625V156.375L293.625 218.625H231.375Z" fill="#851C23"/>
<path d="M306.375 218.625V156.375L368.625 218.625H306.375Z" fill="#851C23"/>
<path d="M381.375 218.625V156.375L443.625 218.625H381.375Z" fill="#851C23"/>
<path d="M456.375 218.625V156.375L518.625 218.625H456.375Z" fill="#851C23"/>
<path d="M531.375 218.625V156.375L593.625 218.625H531.375Z" fill="#450408"/>
<path d="M6.375 293.625V231.375L68.625 293.625H6.375Z" fill="#450408"/>
<path d="M81.375 293.625V231.375L143.625 293.625H81.375Z" fill="#450408"/>
<path d="M156.375 293.625V231.375L218.625 293.625H156.375Z" fill="#851C23"/>
<path d="M231.375 293.625V231.375L293.625 293.625H231.375Z" fill="#450408"/>
<path d="M306.375 293.625V231.375L368.625 293.625H306.375Z" fill="#851C23"/>
<path d="M381.375 293.625V231.375L443.625 293.625H381.375Z" fill="#851C23"/>
<path d="M456.375 293.625V231.375L518.625 293.625H456.375Z" fill="#851C23"/>
<path d="M531.375 293.625V231.375L593.625 293.625H531.375Z" fill="#450408"/>
<path d="M6.375 368.625V306.375L68.625 368.625H6.375Z" fill="#851C23"/>
<path d="M81.375 368.625V306.375L143.625 368.625H81.375Z" fill="#450408"/>
<path d="M156.375 368.625V306.375L218.625 368.625H156.375Z" fill="#450408"/>
<path d="M231.375 368.625V306.375L293.625 368.625H231.375Z" fill="#450408"/>
<path d="M306.375 368.625V306.375L368.625 368.625H306.375Z" fill="#450408"/>
<path d="M381.375 368.625V306.375L443.625 368.625H381.375Z" fill="#851C23"/>
<path d="M456.375 368.625V306.375L518.625 368.625H456.375Z" fill="#851C23"/>
<path d="M531.375 368.625V306.375L593.625 368.625H531.375Z" fill="#851C23"/>
<path d="M600 375H0V750H600V375Z" fill="#D60F1D"/>
<path d="M6.375 443.625V381.375L68.625 443.625H6.375Z" fill="#851C23"/>
<path d="M81.375 443.625V381.375L143.625 443.625H81.375Z" fill="#851C23"/>
<path d="M156.375 443.625V381.375L218.625 443.625H156.375Z" fill="#450408"/>
<path d="M231.375 443.625V381.375L293.625 443.625H231.375Z" fill="#450408"/>
<path d="M306.375 443.625V381.375L368.625 443.625H306.375Z" fill="#851C23"/>
<path d="M381.375 443.625V381.375L443.625 443.625H381.375Z" fill="#851C23"/>
<path d="M456.375 443.625V381.375L518.625 443.625H456.375Z" fill="#851C23"/>
<path d="M531.375 443.625V381.375L593.625 443.625H531.375Z" fill="#851C23"/>
<path d="M6.375 518.625V456.375L68.625 518.625H6.375Z" fill="#450408"/>
<path d="M81.375 518.625V456.375L143.625 518.625H81.375Z" fill="#450408"/>
<path d="M156.375 518.625V456.375L218.625 518.625H156.375Z" fill="#851C23"/>
<path d="M231.375 518.625V456.375L293.625 518.625H231.375Z" fill="#851C23"/>
<path d="M306.375 518.625V456.375L368.625 518.625H306.375Z" fill="#851C23"/>
<path d="M381.375 518.625V456.375L443.625 518.625H381.375Z" fill="#450408"/>
<path d="M456.375 518.625V456.375L518.625 518.625H456.375Z" fill="#851C23"/>
<path d="M531.375 518.625V456.375L593.625 518.625H531.375Z" fill="#450408"/>
<path d="M6.375 593.625V531.375L68.625 593.625H6.375Z" fill="#450408"/>
<path d="M81.375 593.625V531.375L143.625 593.625H81.375Z" fill="#851C23"/>
<path d="M156.375 593.625V531.375L218.625 593.625H156.375Z" fill="#851C23"/>
<path d="M231.375 593.625V531.375L293.625 593.625H231.375Z" fill="#851C23"/>
<path d="M306.375 593.625V531.375L368.625 593.625H306.375Z" fill="#851C23"/>
<path d="M381.375 593.625V531.375L443.625 593.625H381.375Z" fill="#851C23"/>
<path d="M456.375 593.625V531.375L518.625 593.625H456.375Z" fill="#851C23"/>
<path d="M531.375 593.625V531.375L593.625 593.625H531.375Z" fill="#450408"/>
<path d="M6.375 668.625V606.375L68.625 668.625H6.375Z" fill="#450408"/>
<path d="M81.375 668.625V606.375L143.625 668.625H81.375Z" fill="#450408"/>
<path d="M156.375 668.625V606.375L218.625 668.625H156.375Z" fill="#851C23"/>
<path d="M231.375 668.625V606.375L293.625 668.625H231.375Z" fill="#450408"/>
<path d="M306.375 668.625V606.375L368.625 668.625H306.375Z" fill="#851C23"/>
<path d="M381.375 668.625V606.375L443.625 668.625H381.375Z" fill="#851C23"/>
<path d="M456.375 668.625V606.375L518.625 668.625H456.375Z" fill="#851C23"/>
<path d="M531.375 668.625V606.375L593.625 668.625H531.375Z" fill="#450408"/>
<path d="M1200 0H600V375H1200V0Z" fill="#D60F1D"/>
<path d="M606.375 68.625V6.375L668.625 68.625H606.375Z" fill="#851C23"/>
<path d="M681.375 68.625V6.375L743.625 68.625H681.375Z" fill="#851C23"/>
<path d="M756.375 68.625V6.375L818.625 68.625H756.375Z" fill="#450408"/>
<path d="M831.375 68.625V6.375L893.625 68.625H831.375Z" fill="#450408"/>
<path d="M906.375 68.625V6.375L968.625 68.625H906.375Z" fill="#851C23"/>
<path d="M981.375 68.625V6.375L1043.63 68.625H981.375Z" fill="#851C23"/>
<path d="M1056.38 68.625V6.375L1118.63 68.625H1056.38Z" fill="#851C23"/>
<path d="M1131.38 68.625V6.375L1193.63 68.625H1131.38Z" fill="#851C23"/>
<path d="M606.375 143.625V81.375L668.625 143.625H606.375Z" fill="#450408"/>
<path d="M681.375 143.625V81.375L743.625 143.625H681.375Z" fill="#450408"/>
<path d="M756.375 143.625V81.375L818.625 143.625H756.375Z" fill="#851C23"/>
<path d="M831.375 143.625V81.375L893.625 143.625H831.375Z" fill="#851C23"/>
<path d="M906.375 143.625V81.375L968.625 143.625H906.375Z" fill="#851C23"/>
<path d="M981.375 143.625V81.375L1043.63 143.625H981.375Z" fill="#450408"/>
<path d="M1056.38 143.625V81.375L1118.63 143.625H1056.38Z" fill="#851C23"/>
<path d="M1131.38 143.625V81.375L1193.63 143.625H1131.38Z" fill="#450408"/>
<path d="M606.375 218.625V156.375L668.625 218.625H606.375Z" fill="#450408"/>
<path d="M681.375 218.625V156.375L743.625 218.625H681.375Z" fill="#851C23"/>
<path d="M756.375 218.625V156.375L818.625 218.625H756.375Z" fill="#851C23"/>
<path d="M831.375 218.625V156.375L893.625 218.625H831.375Z" fill="#851C23"/>
<path d="M906.375 218.625V156.375L968.625 218.625H906.375Z" fill="#851C23"/>
<path d="M981.375 218.625V156.375L1043.63 218.625H981.375Z" fill="#851C23"/>
<path d="M1056.38 218.625V156.375L1118.63 218.625H1056.38Z" fill="#851C23"/>
<path d="M1131.38 218.625V156.375L1193.63 218.625H1131.38Z" fill="#450408"/>
<path d="M606.375 293.625V231.375L668.625 293.625H606.375Z" fill="#450408"/>
<path d="M681.375 293.625V231.375L743.625 293.625H681.375Z" fill="#450408"/>
<path d="M756.375 293.625V231.375L818.625 293.625H756.375Z" fill="#851C23"/>
<path d="M831.375 293.625V231.375L893.625 293.625H831.375Z" fill="#450408"/>
<path d="M906.375 293.625V231.375L968.625 293.625H906.375Z" fill="#851C23"/>
<path d="M981.375 293.625V231.375L1043.63 293.625H981.375Z" fill="#851C23"/>
<path d="M1056.38 293.625V231.375L1118.63 293.625H1056.38Z" fill="#851C23"/>
<path d="M1131.38 293.625V231.375L1193.63 293.625H1131.38Z" fill="#450408"/>
<path d="M606.375 368.625V306.375L668.625 368.625H606.375Z" fill="#851C23"/>
<path d="M681.375 368.625V306.375L743.625 368.625H681.375Z" fill="#450408"/>
<path d="M756.375 368.625V306.375L818.625 368.625H756.375Z" fill="#450408"/>
<path d="M831.375 368.625V306.375L893.625 368.625H831.375Z" fill="#450408"/>
<path d="M906.375 368.625V306.375L968.625 368.625H906.375Z" fill="#450408"/>
<path d="M981.375 368.625V306.375L1043.63 368.625H981.375Z" fill="#851C23"/>
<path d="M1056.38 368.625V306.375L1118.63 368.625H1056.38Z" fill="#851C23"/>
<path d="M1131.38 368.625V306.375L1193.63 368.625H1131.38Z" fill="#851C23"/>
<path d="M1200 375H600V750H1200V375Z" fill="#D60F1D"/>
<path d="M606.375 443.625V381.375L668.625 443.625H606.375Z" fill="#851C23"/>
<path d="M681.375 443.625V381.375L743.625 443.625H681.375Z" fill="#851C23"/>
<path d="M756.375 443.625V381.375L818.625 443.625H756.375Z" fill="#450408"/>
<path d="M831.375 443.625V381.375L893.625 443.625H831.375Z" fill="#450408"/>
<path d="M906.375 443.625V381.375L968.625 443.625H906.375Z" fill="#851C23"/>
<path d="M981.375 443.625V381.375L1043.63 443.625H981.375Z" fill="#851C23"/>
<path d="M1056.38 443.625V381.375L1118.63 443.625H1056.38Z" fill="#851C23"/>
<path d="M1131.38 443.625V381.375L1193.63 443.625H1131.38Z" fill="#851C23"/>
<path d="M606.375 518.625V456.375L668.625 518.625H606.375Z" fill="#450408"/>
<path d="M681.375 518.625V456.375L743.625 518.625H681.375Z" fill="#450408"/>
<path d="M756.375 518.625V456.375L818.625 518.625H756.375Z" fill="#851C23"/>
<path d="M831.375 518.625V456.375L893.625 518.625H831.375Z" fill="#851C23"/>
<path d="M906.375 518.625V456.375L968.625 518.625H906.375Z" fill="#851C23"/>
<path d="M981.375 518.625V456.375L1043.63 518.625H981.375Z" fill="#450408"/>
<path d="M1056.38 518.625V456.375L1118.63 518.625H1056.38Z" fill="#851C23"/>
<path d="M1131.38 518.625V456.375L1193.63 518.625H1131.38Z" fill="#450408"/>
<path d="M606.375 593.625V531.375L668.625 593.625H606.375Z" fill="#450408"/>
<path d="M681.375 593.625V531.375L743.625 593.625H681.375Z" fill="#851C23"/>
<path d="M756.375 593.625V531.375L818.625 593.625H756.375Z" fill="#851C23"/>
<path d="M831.375 593.625V531.375L893.625 593.625H831.375Z" fill="#851C23"/>
<path d="M906.375 593.625V531.375L968.625 593.625H906.375Z" fill="#851C23"/>
<path d="M981.375 593.625V531.375L1043.63 593.625H981.375Z" fill="#851C23"/>
<path d="M1056.38 593.625V531.375L1118.63 593.625H1056.38Z" fill="#851C23"/>
<path d="M1131.38 593.625V531.375L1193.63 593.625H1131.38Z" fill="#450408"/>
<path d="M606.375 668.625V606.375L668.625 668.625H606.375Z" fill="#450408"/>
<path d="M681.375 668.625V606.375L743.625 668.625H681.375Z" fill="#450408"/>
<path d="M756.375 668.625V606.375L818.625 668.625H756.375Z" fill="#851C23"/>
<path d="M831.375 668.625V606.375L893.625 668.625H831.375Z" fill="#450408"/>
<path d="M906.375 668.625V606.375L968.625 668.625H906.375Z" fill="#851C23"/>
<path d="M981.375 668.625V606.375L1043.63 668.625H981.375Z" fill="#851C23"/>
<path d="M1056.38 668.625V606.375L1118.63 668.625H1056.38Z" fill="#851C23"/>
<path d="M1131.38 668.625V606.375L1193.63 668.625H1131.38Z" fill="#450408"/>
<path d="M1800 0H1200V375H1800V0Z" fill="#D60F1D"/>
<path d="M1206.38 68.625V6.375L1268.63 68.625H1206.38Z" fill="#851C23"/>
<path d="M1281.38 68.625V6.375L1343.63 68.625H1281.38Z" fill="#851C23"/>
<path d="M1356.38 68.625V6.375L1418.63 68.625H1356.38Z" fill="#450408"/>
<path d="M1431.38 68.625V6.375L1493.63 68.625H1431.38Z" fill="#450408"/>
<path d="M1206.38 143.625V81.375L1268.63 143.625H1206.38Z" fill="#450408"/>
<path d="M1281.38 143.625V81.375L1343.63 143.625H1281.38Z" fill="#450408"/>
<path d="M1356.38 143.625V81.375L1418.63 143.625H1356.38Z" fill="#851C23"/>
<path d="M1431.38 143.625V81.375L1493.63 143.625H1431.38Z" fill="#851C23"/>
<path d="M1206.38 218.625V156.375L1268.63 218.625H1206.38Z" fill="#450408"/>
<path d="M1281.38 218.625V156.375L1343.63 218.625H1281.38Z" fill="#851C23"/>
<path d="M1356.38 218.625V156.375L1418.63 218.625H1356.38Z" fill="#851C23"/>
<path d="M1431.38 218.625V156.375L1493.63 218.625H1431.38Z" fill="#851C23"/>
<path d="M1206.38 293.625V231.375L1268.63 293.625H1206.38Z" fill="#450408"/>
<path d="M1281.38 293.625V231.375L1343.63 293.625H1281.38Z" fill="#450408"/>
<path d="M1356.38 293.625V231.375L1418.63 293.625H1356.38Z" fill="#851C23"/>
<path d="M1431.38 293.625V231.375L1493.63 293.625H1431.38Z" fill="#450408"/>
<path d="M1206.38 368.625V306.375L1268.63 368.625H1206.38Z" fill="#851C23"/>
<path d="M1281.38 368.625V306.375L1343.63 368.625H1281.38Z" fill="#450408"/>
<path d="M1356.38 368.625V306.375L1418.63 368.625H1356.38Z" fill="#450408"/>
<path d="M1431.38 368.625V306.375L1493.63 368.625H1431.38Z" fill="#450408"/>
<path d="M1800 375H1200V750H1800V375Z" fill="#D60F1D"/>
<path d="M1206.38 443.625V381.375L1268.63 443.625H1206.38Z" fill="#851C23"/>
<path d="M1281.38 443.625V381.375L1343.63 443.625H1281.38Z" fill="#851C23"/>
<path d="M1356.38 443.625V381.375L1418.63 443.625H1356.38Z" fill="#450408"/>
<path d="M1431.38 443.625V381.375L1493.63 443.625H1431.38Z" fill="#450408"/>
<path d="M1206.38 518.625V456.375L1268.63 518.625H1206.38Z" fill="#450408"/>
<path d="M1281.38 518.625V456.375L1343.63 518.625H1281.38Z" fill="#450408"/>
<path d="M1356.38 518.625V456.375L1418.63 518.625H1356.38Z" fill="#851C23"/>
<path d="M1431.38 518.625V456.375L1493.63 518.625H1431.38Z" fill="#851C23"/>
<path d="M1206.38 593.625V531.375L1268.63 593.625H1206.38Z" fill="#450408"/>
<path d="M1281.38 593.625V531.375L1343.63 593.625H1281.38Z" fill="#851C23"/>
<path d="M1356.38 593.625V531.375L1418.63 593.625H1356.38Z" fill="#851C23"/>
<path d="M1431.38 593.625V531.375L1493.63 593.625H1431.38Z" fill="#851C23"/>
<path d="M1206.38 668.625V606.375L1268.63 668.625H1206.38Z" fill="#450408"/>
<path d="M1281.38 668.625V606.375L1343.63 668.625H1281.38Z" fill="#450408"/>
<path d="M1356.38 668.625V606.375L1418.63 668.625H1356.38Z" fill="#851C23"/>
<path d="M1431.38 668.625V606.375L1493.63 668.625H1431.38Z" fill="#450408"/>
</g>
</g>
<defs>
<clipPath id="clip0_1033_6035">
<rect width="1440" height="675" fill="white"/>
</clipPath>
</defs>
</svg>
