<svg width="1440" height="900" viewBox="0 0 1440 900" fill="none" xmlns="http://www.w3.org/2000/svg">
<path d="M420 192.857C401.09 192.857 376.92 203.127 376.92 225C376.92 252.53 403.44 291.664 420 291.664C432.16 291.664 434.36 256.644 434.36 225C434.36 207.241 429.81 192.857 420 192.857Z" stroke="#3158BC" stroke-width="2"/>
<path d="M840 176.609C819 176.609 797.58 195.895 797.58 225C797.58 263.363 819.17 311.545 840 311.545C860.38 311.545 880 263.636 880 225C880 196.168 860.21 176.609 840 176.609Z" stroke="#3158BC" stroke-width="2"/>
<path d="M1260 131.255C1244.97 131.255 1246.79 178.778 1246.79 225C1246.79 255.246 1247.05 284.207 1260 284.207C1282.82 284.207 1318.33 259.826 1318.33 225C1318.33 183.358 1280.74 131.255 1260 131.255Z" stroke="#3158BC" stroke-width="2"/>
<path d="M280 347.721C226.49 347.721 185.9 370.864 163.33 450C139.23 534.503 152.14 594.401 186.67 675C210.48 730.575 241.24 722.362 280 722.362C292.14 722.362 283.23 698.143 288.48 675C314.11 561.953 344.42 552.793 341.76 450C340.18 389.153 315.71 347.721 280 347.721Z" stroke="#3158BC" stroke-width="2"/>
<path d="M980 398.073C959.84 398.073 935.32 416.314 935.32 450C935.32 504.788 961.55 575.004 980 575.004C996.86 575.004 1005.93 508.773 1005.93 450C1005.93 420.3 995.15 398.073 980 398.073Z" stroke="#3158BC" stroke-width="2"/>
<path d="M560 617.143C542.16 617.143 528.5 647.068 528.5 675C528.5 700.698 542.51 724.387 560 724.387C583.46 724.387 610.4 701.164 610.4 675C610.4 647.55 583.11 617.143 560 617.143Z" stroke="#3158BC" stroke-width="2"/>
<path d="M840 580.901C807.51 580.901 781.45 632.137 781.45 675C781.45 711.932 808.77 740.507 840 740.507C884.05 740.507 932 713.298 932 675C932 633.487 882.79 580.901 840 580.901Z" stroke="#3158BC" stroke-width="2"/>
<path d="M9.53674e-07 225C70 174.23 71.08 123.477 140 123.477C199.95 123.477 257.73 167.207 257.73 225C257.73 288.53 196.15 290.636 140 366.107C112.45 403.136 115.7 408.905 90.32 450C45.7 522.273 26.54 592.859 9.53674e-07 592.859C-18.62 592.859 9.53674e-07 521.421 9.53674e-07 450C9.53674e-07 337.5 9.53674e-07 337.5 9.53674e-07 225Z" stroke="#3158BC" stroke-width="2"/>
<path d="M420 92.4104C391.6 40.7247 355.6 26.4694 355.6 -0.000278473C355.6 -19.736 387.8 -0.000278473 420 -0.000278473C490 -0.000278473 490 -0.000278473 560 -0.000278473C600.14 -0.000278473 609.25 -28.9289 640.29 -0.000278473C679.25 36.3212 669.9 65.539 700 130.5C722.03 178.039 721.9 178.216 744.55 225C791.9 322.81 790.81 324.546 840 419.705C848.96 437.046 860.85 435.085 860.85 450C860.85 464.56 849.8 463.227 840 478.639C778.28 575.727 774.21 571.5 717.82 675C704.21 699.975 709.27 735.573 700 735.573C690.56 735.573 696.01 697.178 680.4 675C626.01 597.777 615.2 536.785 560 536.785C517.37 536.785 484.75 608.287 484.75 675C484.75 736.377 519.61 739.334 560 792.98C604.3 851.834 654.14 870.541 654.14 900C654.14 924.043 607.07 900 560 900C491.75 900 490.99 902.844 423.5 900C420.99 899.887 421.28 897.605 420 894.085C380.29 785.105 341.52 782.807 341.52 675C341.52 576.466 377.51 573.364 420 481.387C429.48 460.864 440.05 473.352 445.45 450C469.67 345.166 486.69 329.85 479.23 225C473.97 151.055 453.41 153.225 420 92.4104Z" stroke="#3158BC" stroke-width="2"/>
<path d="M840 116.132C796.71 116.132 752.73 32.8018 752.73 5.62999e-05C752.73 -25.2642 796.37 5.62999e-05 840 5.62999e-05C882 5.62999e-05 924 -25.0392 924 5.62999e-05C924 33.0268 882.34 116.132 840 116.132Z" stroke="#3158BC" stroke-width="2"/>
<path d="M930 225C930 176.962 945.78 140.239 980 126.321C1040.78 101.62 1055.28 115.939 1120 147.761C1155.65 165.279 1161.83 173.202 1180.75 225C1217.02 324.321 1199.61 343.414 1230.38 450C1239.23 480.664 1244.55 499.5 1260 499.5C1276.86 499.5 1277.39 474.541 1295 450C1347.39 377.004 1349.81 304.409 1400 304.409C1445.09 304.409 1444.92 374.287 1485.56 450C1514.92 504.707 1524.52 501.268 1540 565.248C1551.74 613.768 1540 620.132 1540 675C1540 772.827 1553.83 870.653 1540 870.653C1524.66 870.653 1521.22 759.455 1481.67 675C1451.22 609.991 1438.17 571.725 1400 571.725C1368.08 571.725 1370.59 623.137 1341.49 675C1300.59 747.9 1303.84 821.25 1260 821.25C1209.57 821.25 1205.76 749.395 1152.94 675C1135.76 650.796 1133.55 653.416 1120 624.053C1081.65 540.916 1086.91 534.295 1049.14 450C1016.91 378.048 1015.77 379.109 980 311.545C956.2 266.609 930 269.582 930 225Z" stroke="#3158BC" stroke-width="2"/>
<path d="M1400 123.75C1352.58 99.6747 1323 36.2407 1323 -0.000324179C1323 -25.6342 1361.5 -0.000324179 1400 -0.000324179C1470 -0.000324179 1493.01 -36.9807 1540 -0.000324179C1563.01 18.1122 1562.99 89.8872 1540 110.201C1492.99 151.762 1461.08 154.768 1400 123.75Z" stroke="#3158BC" stroke-width="2"/>
<path d="M753.2 900C753.2 876.069 793.75 846.546 840 811.703C907.15 761.127 918.26 707.384 980 729.161C1043.45 751.532 1090.38 850.339 1090.38 900C1090.38 935.759 1035.19 900 980 900C910 900 910 900 840 900C796.6 900 753.2 920.218 753.2 900Z" stroke="#3158BC" stroke-width="2"/>
<path d="M94.59 224.999C94.59 206.051 117.65 192.069 140 192.069C159.44 192.069 178.18 206.26 178.18 224.999C178.18 245.603 159.66 270.754 140 270.754C117.87 270.754 94.59 245.394 94.59 224.999Z" stroke="#3158BC" stroke-width="2"/>
<path d="M524.1 225C493.56 104.464 427.21 64.4944 437.5 -0.000222221C445.16 -48.0056 498.75 -0.000222221 560 -0.000222221C574.41 -0.000222221 580.16 -16.6984 588.82 -0.000222221C638.49 95.8016 631.67 113.689 676.67 225C687.26 251.18 689.96 248.287 700 274.998C732.25 360.787 761.25 369.257 761.25 450C761.25 505.977 736.64 547.264 700 548.437C636.02 550.478 629.91 502.778 560 456.428C555.67 453.552 552.63 457.135 551.52 450C534.68 341.421 550.57 329.464 524.1 225Z" stroke="#3158BC" stroke-width="2"/>
<path d="M840 55.6389C819.25 55.6389 798.18 15.7175 798.18 -0.000335156C798.18 -12.1021 819.09 -0.000335156 840 -0.000335156C860.13 -0.000335156 880.25 -11.9896 880.25 -0.000335156C880.25 15.83 860.29 55.6389 840 55.6389Z" stroke="#3158BC" stroke-width="2"/>
<path d="M9.53674e-07 365.625C9.2 365.625 33.87 410.818 33.87 450C33.87 479.796 9.95 503.566 9.53674e-07 503.566C-6.98 503.566 9.53674e-07 476.775 9.53674e-07 450C9.53674e-07 407.812 -7.73 365.625 9.53674e-07 365.625Z" stroke="#3158BC" stroke-width="2"/>
<path d="M1092.35 450C1092.35 354.054 1102.6 250.007 1120 250.007C1137.97 250.007 1163.08 358.136 1163.08 450C1163.08 492.091 1139.25 517.918 1120 517.918C1103.89 517.918 1092.35 488.009 1092.35 450Z" stroke="#3158BC" stroke-width="2"/>
<path d="M1374.55 450C1374.55 433.237 1387.84 414.707 1400 414.707C1410.93 414.707 1420.74 433.093 1420.74 450C1420.74 465.493 1410.83 479.507 1400 479.507C1387.73 479.507 1374.55 465.637 1374.55 450Z" stroke="#3158BC" stroke-width="2"/>
<path d="M394.55 674.999C394.55 643.033 408.1 612.208 420 612.208C431.32 612.208 441 643.178 441 674.999C441 710.099 431.37 746.051 420 746.051C408.15 746.051 394.55 709.954 394.55 674.999Z" stroke="#3158BC" stroke-width="2"/>
<path d="M1221.57 674.999C1221.57 644.897 1242.1 611.999 1260 611.999C1275.94 611.999 1289.25 644.544 1289.25 674.999C1289.25 702.305 1275.74 727.505 1260 727.505C1241.9 727.505 1221.57 702.658 1221.57 674.999Z" stroke="#3158BC" stroke-width="2"/>
<path d="M511 900C511 889.891 536.47 861.589 560 861.589C577.86 861.589 593.79 889.425 593.79 900C593.79 908.631 576.89 900 560 900C535.5 900 511 909.097 511 900Z" stroke="#3158BC" stroke-width="2"/>
<path d="M823.2 899.999C823.2 895.371 830.45 886.982 840 882.916C908.85 853.65 915.41 827.309 980 833.335C1006.95 835.842 1023.08 880.617 1023.08 899.999C1023.08 913.949 1001.54 899.999 980 899.999C910 899.999 910 899.999 840 899.999C831.6 899.999 823.2 903.905 823.2 899.999Z" stroke="#3158BC" stroke-width="2"/>
</svg>
