<svg width="241" height="82" viewBox="0 0 241 82" fill="none" xmlns="http://www.w3.org/2000/svg">
<path d="M37.7344 41.5566C37.5977 44.5254 36.7969 47.1523 35.332 49.4375C33.8672 51.7031 31.8066 53.4609 29.1504 54.7109C26.5137 55.9609 23.4961 56.5859 20.0977 56.5859C14.4922 56.5859 10.0781 54.7598 6.85547 51.1074C3.63281 47.4551 2.02148 42.2988 2.02148 35.6387V33.5293C2.02148 29.3496 2.74414 25.6973 4.18945 22.5723C5.6543 19.4277 7.75391 17.0059 10.4883 15.3066C13.2227 13.5879 16.3867 12.7285 19.9805 12.7285C25.1562 12.7285 29.3164 14.0957 32.4609 16.8301C35.6055 19.5449 37.3926 23.2949 37.8223 28.0801H27.5684C27.4902 25.4824 26.8359 23.6172 25.6055 22.4844C24.375 21.3516 22.5 20.7852 19.9805 20.7852C17.4219 20.7852 15.5469 21.7422 14.3555 23.6562C13.1641 25.5703 12.5391 28.627 12.4805 32.8262V35.8438C12.4805 40.3945 13.0469 43.6465 14.1797 45.5996C15.332 47.5527 17.3047 48.5293 20.0977 48.5293C22.4609 48.5293 24.2676 47.9727 25.5176 46.8594C26.7676 45.7461 27.4316 43.9785 27.5098 41.5566H37.7344ZM40.8984 39.8574C40.8984 36.6934 41.5137 33.8809 42.7441 31.4199C43.9746 28.9395 45.7422 27.0352 48.0469 25.707C50.3516 24.3789 53.0566 23.7148 56.1621 23.7148C60.9082 23.7148 64.6484 25.1895 67.3828 28.1387C70.1172 31.0684 71.4844 35.0625 71.4844 40.1211V40.4727C71.4844 45.4141 70.1074 49.3398 67.3535 52.25C64.6191 55.1406 60.9082 56.5859 56.2207 56.5859C51.709 56.5859 48.0859 55.2383 45.3516 52.543C42.6172 49.8281 41.1426 46.1562 40.9277 41.5273L40.8984 39.8574ZM50.7715 40.4727C50.7715 43.4023 51.2305 45.5508 52.1484 46.918C53.0664 48.2852 54.4238 48.9688 56.2207 48.9688C59.7363 48.9688 61.5332 46.2637 61.6113 40.8535V39.8574C61.6113 34.1738 59.7949 31.332 56.1621 31.332C52.8613 31.332 51.0742 33.7832 50.8008 38.6855L50.7715 40.4727ZM94.7168 52.5723C92.627 55.248 89.8047 56.5859 86.25 56.5859C82.7734 56.5859 80.1367 55.5801 78.3398 53.5684C76.5625 51.5371 75.6738 48.627 75.6738 44.8379V24.3008H85.5469V44.8965C85.5469 47.6113 86.8652 48.9688 89.502 48.9688C91.7676 48.9688 93.3789 48.1582 94.3359 46.5371V24.3008H104.268V56H95.0098L94.7168 52.5723ZM128.877 33.2363L125.625 33.002C122.52 33.002 120.527 33.9785 119.648 35.9316V56H109.775V24.3008H119.033L119.355 28.373C121.016 25.2676 123.33 23.7148 126.299 23.7148C127.354 23.7148 128.271 23.832 129.053 24.0664L128.877 33.2363ZM149.033 47.0938C149.033 46.2539 148.594 45.5801 147.715 45.0723C146.836 44.5645 145.166 44.0371 142.705 43.4902C140.244 42.9434 138.213 42.2305 136.611 41.3516C135.01 40.4531 133.789 39.3691 132.949 38.0996C132.109 36.8301 131.689 35.375 131.689 33.7344C131.689 30.8242 132.891 28.4316 135.293 26.5566C137.695 24.6621 140.84 23.7148 144.727 23.7148C148.906 23.7148 152.266 24.6621 154.805 26.5566C157.344 28.4512 158.613 30.9414 158.613 34.0273H148.711C148.711 31.4883 147.373 30.2188 144.697 30.2188C143.662 30.2188 142.793 30.5117 142.09 31.0977C141.387 31.6641 141.035 32.377 141.035 33.2363C141.035 34.1152 141.465 34.8281 142.324 35.375C143.184 35.9219 144.551 36.3711 146.426 36.7227C148.32 37.0742 149.98 37.4941 151.406 37.9824C156.172 39.623 158.555 42.5625 158.555 46.8008C158.555 49.6914 157.266 52.0449 154.688 53.8613C152.129 55.6777 148.809 56.5859 144.727 56.5859C142.012 56.5859 139.59 56.0977 137.461 55.1211C135.332 54.1445 133.672 52.8164 132.48 51.1367C131.289 49.457 130.693 47.6895 130.693 45.834H139.922C139.961 47.2988 140.449 48.373 141.387 49.0566C142.324 49.7207 143.525 50.0527 144.99 50.0527C146.338 50.0527 147.344 49.7793 148.008 49.2324C148.691 48.6855 149.033 47.9727 149.033 47.0938ZM178.535 56.5859C173.672 56.5859 169.736 55.1406 166.729 52.25C163.721 49.3398 162.217 45.5605 162.217 40.9121V40.0918C162.217 36.8496 162.812 33.9883 164.004 31.5078C165.215 29.0273 166.973 27.1133 169.277 25.7656C171.582 24.3984 174.316 23.7148 177.48 23.7148C181.934 23.7148 185.449 25.1016 188.027 27.875C190.605 30.6289 191.895 34.4766 191.895 39.418V43.2559H172.266C172.617 45.0332 173.389 46.4297 174.58 47.4453C175.771 48.4609 177.314 48.9688 179.209 48.9688C182.334 48.9688 184.775 47.875 186.533 45.6875L191.045 51.0195C189.814 52.7188 188.066 54.0762 185.801 55.0918C183.555 56.0879 181.133 56.5859 178.535 56.5859ZM177.422 31.332C174.531 31.332 172.812 33.2461 172.266 37.0742H182.227V36.3125C182.266 34.7305 181.865 33.5098 181.025 32.6504C180.186 31.7715 178.984 31.332 177.422 31.332ZM212.49 47.0938C212.49 46.2539 212.051 45.5801 211.172 45.0723C210.293 44.5645 208.623 44.0371 206.162 43.4902C203.701 42.9434 201.67 42.2305 200.068 41.3516C198.467 40.4531 197.246 39.3691 196.406 38.0996C195.566 36.8301 195.146 35.375 195.146 33.7344C195.146 30.8242 196.348 28.4316 198.75 26.5566C201.152 24.6621 204.297 23.7148 208.184 23.7148C212.363 23.7148 215.723 24.6621 218.262 26.5566C220.801 28.4512 222.07 30.9414 222.07 34.0273H212.168C212.168 31.4883 210.83 30.2188 208.154 30.2188C207.119 30.2188 206.25 30.5117 205.547 31.0977C204.844 31.6641 204.492 32.377 204.492 33.2363C204.492 34.1152 204.922 34.8281 205.781 35.375C206.641 35.9219 208.008 36.3711 209.883 36.7227C211.777 37.0742 213.438 37.4941 214.863 37.9824C219.629 39.623 222.012 42.5625 222.012 46.8008C222.012 49.6914 220.723 52.0449 218.145 53.8613C215.586 55.6777 212.266 56.5859 208.184 56.5859C205.469 56.5859 203.047 56.0977 200.918 55.1211C198.789 54.1445 197.129 52.8164 195.938 51.1367C194.746 49.457 194.15 47.6895 194.15 45.834H203.379C203.418 47.2988 203.906 48.373 204.844 49.0566C205.781 49.7207 206.982 50.0527 208.447 50.0527C209.795 50.0527 210.801 49.7793 211.465 49.2324C212.148 48.6855 212.49 47.9727 212.49 47.0938Z" fill="white"/>
<path d="M54.7344 53.5566L55.7333 53.6026L55.7815 52.5566H54.7344V53.5566ZM52.332 61.4375L53.1718 61.9805L53.1739 61.9772L52.332 61.4375ZM46.1504 66.7109L45.7246 65.8061L45.722 65.8073L46.1504 66.7109ZM21.1895 34.5723L20.283 34.15L20.2818 34.1525L21.1895 34.5723ZM27.4883 27.3066L28.0161 28.156L28.0205 28.1533L27.4883 27.3066ZM49.4609 28.8301L48.8048 29.5847L48.8074 29.587L49.4609 28.8301ZM54.8223 40.0801V41.0801H55.9161L55.8183 39.9906L54.8223 40.0801ZM44.5684 40.0801L43.5688 40.1101L43.598 41.0801H44.5684V40.0801ZM31.3555 35.6562L32.2044 36.1847L31.3555 35.6562ZM29.4805 44.8262L28.4805 44.8122V44.8262H29.4805ZM31.1797 57.5996L30.3146 58.1013L30.3184 58.1078L31.1797 57.5996ZM44.5098 53.5566V52.5566H43.5415L43.5103 53.5244L44.5098 53.5566ZM53.7354 53.5106C53.606 56.321 52.8513 58.7744 51.4902 60.8978L53.1739 61.9772C54.7424 59.5303 55.5893 56.7298 55.7333 53.6026L53.7354 53.5106ZM51.4923 60.8946C50.1378 62.9895 48.2272 64.6284 45.7246 65.8061L46.5762 67.6158C49.3861 66.2935 51.5966 64.4168 53.1718 61.9804L51.4923 60.8946ZM45.722 65.8073C43.2395 66.9842 40.3722 67.5859 37.0977 67.5859V69.5859C40.62 69.5859 43.7878 68.9376 46.5788 67.6145L45.722 65.8073ZM37.0977 67.5859C31.7312 67.5859 27.6086 65.8495 24.6053 62.4458L23.1056 63.769C26.5477 67.67 31.2532 69.5859 37.0977 69.5859V67.5859ZM24.6053 62.4458C21.5948 59.0339 20.0215 54.1451 20.0215 47.6387H18.0215C18.0215 54.4525 19.6708 59.8762 23.1056 63.769L24.6053 62.4458ZM20.0215 47.6387V45.5293H18.0215V47.6387H20.0215ZM20.0215 45.5293C20.0215 41.4641 20.7242 37.9604 22.0971 34.992L20.2818 34.1525C18.7641 37.4341 18.0215 41.2351 18.0215 45.5293H20.0215ZM22.0959 34.9945C23.4854 32.0119 25.4596 29.7447 28.0161 28.156L26.9605 26.4573C24.0482 28.2671 21.8232 30.8436 20.283 34.15L22.0959 34.9945ZM28.0205 28.1533C30.5778 26.5458 33.5531 25.7285 36.9805 25.7285V23.7285C33.2203 23.7285 29.8675 24.63 26.9561 26.46L28.0205 28.1533ZM36.9805 25.7285C41.9756 25.7285 45.8832 27.0442 48.8048 29.5847L50.1171 28.0755C46.7496 25.1472 42.3369 23.7285 36.9805 23.7285V25.7285ZM48.8074 29.587C51.7247 32.1056 53.4159 35.5993 53.8263 40.1695L55.8183 39.9906C55.3693 34.9905 53.4862 30.9842 50.1144 28.0731L48.8074 29.587ZM54.8223 39.0801H44.5684V41.0801H54.8223V39.0801ZM45.5679 40.05C45.4861 37.329 44.7975 35.1432 43.2828 33.7487L41.9282 35.2201C42.8744 36.0912 43.4944 37.6358 43.5688 40.1101L45.5679 40.05ZM43.2828 33.7487C41.7933 32.3774 39.6271 31.7852 36.9805 31.7852V33.7852C39.3729 33.7852 40.9567 34.3257 41.9282 35.2201L43.2828 33.7487ZM36.9805 31.7852C34.1316 31.7852 31.9078 32.8765 30.5065 35.1278L32.2044 36.1847C33.1859 34.6079 34.7122 33.7852 36.9805 33.7852V31.7852ZM30.5065 35.1278C29.167 37.2799 28.5398 40.564 28.4806 44.8122L30.4804 44.8401C30.5383 40.6899 31.1612 37.8608 32.2044 36.1847L30.5065 35.1278ZM28.4805 44.8262V47.8438H30.4805V44.8262H28.4805ZM28.4805 47.8438C28.4805 52.4252 29.0414 55.9061 30.3147 58.1013L32.0447 57.0979C31.0523 55.3868 30.4805 52.3638 30.4805 47.8438H28.4805ZM30.3184 58.1078C31.6944 60.4399 34.0463 61.5293 37.0977 61.5293V59.5293C34.563 59.5293 32.9697 58.6656 32.041 57.0915L30.3184 58.1078ZM37.0977 61.5293C39.6057 61.5293 41.6863 60.9388 43.1827 59.6061L41.8525 58.1126C40.8489 59.0065 39.3162 59.5293 37.0977 59.5293V61.5293ZM43.1827 59.6061C44.7144 58.2419 45.4263 56.1608 45.5092 53.5889L43.5103 53.5244C43.437 55.7962 42.8208 57.2502 41.8525 58.1126L43.1827 59.6061ZM44.5098 54.5566H54.7344V52.5566H44.5098V54.5566ZM57.8984 51.8574H56.8984V51.8662L56.8986 51.875L57.8984 51.8574ZM59.7441 43.4199L60.6386 43.8671L60.64 43.8643L59.7441 43.4199ZM65.0469 37.707L64.5476 36.8406L65.0469 37.707ZM84.3828 40.1387L83.6495 40.8186L83.6518 40.821L84.3828 40.1387ZM84.3535 64.25L83.6272 63.5627L83.627 63.5628L84.3535 64.25ZM62.3516 64.543L61.647 65.2526L61.6496 65.2551L62.3516 64.543ZM57.9277 53.5273L56.9279 53.5449L56.9281 53.5593L56.9288 53.5737L57.9277 53.5273ZM67.7715 52.4727L66.7716 52.4563L66.7715 52.4645V52.4727H67.7715ZM78.6113 52.8535L79.6112 52.868L79.6113 52.8607V52.8535H78.6113ZM67.8008 50.6855L66.8023 50.6299L66.8012 50.6495L66.8009 50.6692L67.8008 50.6855ZM58.8984 51.8574C58.8984 48.8253 59.4873 46.1697 60.6386 43.8671L58.8497 42.9727C57.5401 45.592 56.8984 48.5615 56.8984 51.8574H58.8984ZM60.64 43.8643C61.7866 41.5529 63.4196 39.7989 65.5462 38.5735L64.5476 36.8406C62.0647 38.2714 60.1626 40.326 58.8483 42.9755L60.64 43.8643ZM65.5462 38.5735C67.6753 37.3465 70.2023 36.7148 73.1621 36.7148V34.7148C69.911 34.7148 67.0279 35.4113 64.5476 36.8406L65.5462 38.5735ZM73.1621 36.7148C77.6845 36.7148 81.1385 38.1103 83.6495 40.8186L85.1161 39.4588C82.1583 36.2686 78.1319 34.7148 73.1621 34.7148V36.7148ZM83.6518 40.821C86.1712 43.5204 87.4844 47.2466 87.4844 52.1211H89.4844C89.4844 46.8784 88.0631 42.6163 85.1139 39.4564L83.6518 40.821ZM87.4844 52.1211V52.4727H89.4844V52.1211H87.4844ZM87.4844 52.4727C87.4844 57.2211 86.1665 60.8793 83.6272 63.5627L85.0798 64.9373C88.0483 61.8004 89.4844 57.607 89.4844 52.4727H87.4844ZM83.627 63.5628C81.1152 66.2182 77.6865 67.5859 73.2207 67.5859V69.5859C78.1299 69.5859 82.1231 68.0631 85.08 64.9372L83.627 63.5628ZM73.2207 67.5859C68.9223 67.5859 65.5683 66.3096 63.0536 63.8308L61.6496 65.2551C64.6035 68.1669 68.4957 69.5859 73.2207 69.5859V67.5859ZM63.0561 63.8333C60.5341 61.3293 59.1324 57.9132 58.9267 53.481L56.9288 53.5737C57.1528 58.3993 58.7002 62.3269 61.647 65.2526L63.0561 63.8333ZM58.9276 53.5098L58.8983 51.8399L56.8986 51.875L56.9279 53.5449L58.9276 53.5098ZM66.7715 52.4727C66.7715 55.4657 67.2327 57.8587 68.3182 59.4754L69.9787 58.3605C69.2282 57.2429 68.7715 55.339 68.7715 52.4727H66.7715ZM68.3182 59.4754C69.4411 61.1477 71.1265 61.9688 73.2207 61.9688V59.9688C71.7212 59.9688 70.6918 59.4226 69.9787 58.3605L68.3182 59.4754ZM73.2207 61.9688C75.2807 61.9688 76.9368 61.151 78.0381 59.4933C79.092 57.9066 79.571 55.6505 79.6112 52.868L77.6114 52.8391C77.5735 55.4667 77.115 57.2682 76.3721 58.3866C75.6764 59.4339 74.6764 59.9688 73.2207 59.9688V61.9688ZM79.6113 52.8535V51.8574H77.6113V52.8535H79.6113ZM79.6113 51.8574C79.6113 48.9412 79.1512 46.5825 78.0916 44.9248C76.9833 43.1909 75.2882 42.332 73.1621 42.332V44.332C74.6688 44.332 75.6983 44.8941 76.4064 46.0019C77.1633 47.1861 77.6113 49.09 77.6113 51.8574H79.6113ZM73.1621 42.332C71.225 42.332 69.6385 43.0721 68.5382 44.5813C67.4808 46.0316 66.9438 48.0942 66.8023 50.6299L68.7992 50.7412C68.9312 48.3745 69.4245 46.7604 70.1542 45.7595C70.841 44.8175 71.7985 44.332 73.1621 44.332V42.332ZM66.8009 50.6692L66.7716 52.4563L68.7714 52.489L68.8006 50.7019L66.8009 50.6692ZM111.717 64.5723L112.713 64.4871L112.496 61.9496L110.929 63.9567L111.717 64.5723ZM95.3398 65.5684L94.5872 66.2269L94.594 66.2345L95.3398 65.5684ZM92.6738 36.3008V35.3008H91.6738V36.3008H92.6738ZM102.547 36.3008H103.547V35.3008H102.547V36.3008ZM111.336 58.5371L112.197 59.0455L112.336 58.8103V58.5371H111.336ZM111.336 36.3008V35.3008H110.336V36.3008H111.336ZM121.268 36.3008H122.268V35.3008H121.268V36.3008ZM121.268 68V69H122.268V68H121.268ZM112.01 68L111.013 68.0852L111.092 69H112.01V68ZM110.929 63.9567C109.038 66.3769 106.514 67.5859 103.25 67.5859V69.5859C107.096 69.5859 110.215 68.1192 112.505 65.1878L110.929 63.9567ZM103.25 67.5859C99.9706 67.5859 97.6414 66.6439 96.0857 64.9022L94.594 66.2345C96.6321 68.5162 99.5762 69.5859 103.25 69.5859V67.5859ZM96.0924 64.9099C94.5287 63.1228 93.6738 60.482 93.6738 56.8379H91.6738C91.6738 60.7719 92.5963 63.9515 94.5873 66.2269L96.0924 64.9099ZM93.6738 56.8379V36.3008H91.6738V56.8379H93.6738ZM92.6738 37.3008H102.547V35.3008H92.6738V37.3008ZM101.547 36.3008V56.8965H103.547V36.3008H101.547ZM101.547 56.8965C101.547 58.4008 101.912 59.7141 102.818 60.6474C103.73 61.5861 105.022 61.9688 106.502 61.9688V59.9688C105.345 59.9688 104.66 59.6727 104.253 59.254C103.841 58.8298 103.547 58.107 103.547 56.8965H101.547ZM106.502 61.9688C109.037 61.9688 111.021 61.0377 112.197 59.0455L110.475 58.0287C109.737 59.2788 108.498 59.9688 106.502 59.9688V61.9688ZM112.336 58.5371V36.3008H110.336V58.5371H112.336ZM111.336 37.3008H121.268V35.3008H111.336V37.3008ZM120.268 36.3008V68H122.268V36.3008H120.268ZM121.268 67H112.01V69H121.268V67ZM113.006 67.9148L112.713 64.4871L110.72 64.6574L111.013 68.0852L113.006 67.9148ZM145.877 45.2363L145.805 46.2337L146.857 46.3095L146.877 45.2555L145.877 45.2363ZM142.625 45.002L142.697 44.0045L142.661 44.002H142.625V45.002ZM136.648 47.9316L135.737 47.5213L135.648 47.717V47.9316H136.648ZM136.648 68V69H137.648V68H136.648ZM126.775 68H125.775V69H126.775V68ZM126.775 36.3008V35.3008H125.775V36.3008H126.775ZM136.033 36.3008L137.03 36.2219L136.957 35.3008H136.033V36.3008ZM136.355 40.373L135.359 40.4519L135.628 43.8551L137.237 40.8445L136.355 40.373ZM146.053 36.0664L147.053 36.0856L147.067 35.3267L146.34 35.1086L146.053 36.0664ZM145.949 44.2389L142.697 44.0045L142.553 45.9994L145.805 46.2337L145.949 44.2389ZM142.625 44.002C139.33 44.002 136.847 45.0542 135.737 47.5213L137.56 48.342C138.208 46.9029 139.709 46.002 142.625 46.002V44.002ZM135.648 47.9316V68H137.648V47.9316H135.648ZM136.648 67H126.775V69H136.648V67ZM127.775 68V36.3008H125.775V68H127.775ZM126.775 37.3008H136.033V35.3008H126.775V37.3008ZM135.036 36.3797L135.359 40.4519L137.352 40.2942L137.03 36.2219L135.036 36.3797ZM137.237 40.8445C138.763 37.9916 140.775 36.7148 143.299 36.7148V34.7148C139.885 34.7148 137.269 36.5436 135.474 39.9016L137.237 40.8445ZM143.299 36.7148C144.283 36.7148 145.1 36.8246 145.765 37.0242L146.34 35.1086C145.443 34.8394 144.424 34.7148 143.299 34.7148V36.7148ZM145.053 36.0472L144.877 45.2172L146.877 45.2555L147.053 36.0856L145.053 36.0472ZM153.611 53.3516L153.122 54.2237L153.13 54.2282L153.611 53.3516ZM152.293 38.5566L152.908 39.345L152.912 39.3419L152.293 38.5566ZM171.805 38.5566L171.207 39.3581L171.805 38.5566ZM175.613 46.0273V47.0273H176.613V46.0273H175.613ZM165.711 46.0273H164.711V47.0273H165.711V46.0273ZM159.09 43.0977L159.717 43.8764L159.724 43.8712L159.73 43.8659L159.09 43.0977ZM163.426 48.7227L163.241 49.7055L163.243 49.7059L163.426 48.7227ZM168.406 49.9824L168.732 49.0369L168.73 49.0364L168.406 49.9824ZM171.688 65.8613L171.112 65.0438L171.109 65.0459L171.688 65.8613ZM147.693 57.834V56.834H146.693V57.834H147.693ZM156.922 57.834L157.922 57.8073L157.896 56.834H156.922V57.834ZM158.387 61.0566L157.797 61.8647L157.809 61.8727L158.387 61.0566ZM165.008 61.2324L164.383 60.4516L164.378 60.456L164.372 60.4605L165.008 61.2324ZM167.033 59.0938C167.033 57.8169 166.327 56.849 165.215 56.2064L164.215 57.9381C164.86 58.3112 165.033 58.6909 165.033 59.0938H167.033ZM165.215 56.2064C164.188 55.6129 162.378 55.0598 159.922 54.514L159.488 56.4664C161.954 57.0144 163.484 57.5161 164.215 57.9381L165.215 56.2064ZM159.922 54.514C157.521 53.9805 155.586 53.2947 154.092 52.4749L153.13 54.2282C154.839 55.1662 156.967 55.9062 159.488 56.4664L159.922 54.514ZM154.101 52.4794C152.609 51.6429 151.519 50.66 150.783 49.5479L149.115 50.6513C150.059 52.0783 151.41 53.2633 153.122 54.2237L154.101 52.4794ZM150.783 49.5479C150.06 48.4548 149.689 47.1948 149.689 45.7344H147.689C147.689 47.5552 148.159 49.2053 149.115 50.6513L150.783 49.5479ZM149.689 45.7344C149.689 43.1487 150.735 41.0408 152.908 39.345L151.678 37.7683C149.046 39.8224 147.689 42.4997 147.689 45.7344H149.689ZM152.912 39.3419C155.095 37.6204 158.003 36.7148 161.727 36.7148V34.7148C157.677 34.7148 154.296 35.7038 151.674 37.7714L152.912 39.3419ZM161.727 36.7148C165.759 36.7148 168.888 37.6282 171.207 39.3581L172.403 37.7552C169.643 35.696 166.053 34.7148 161.727 34.7148V36.7148ZM171.207 39.3581C173.501 41.0698 174.613 43.2668 174.613 46.0273H176.613C176.613 42.616 175.187 39.8325 172.403 37.7552L171.207 39.3581ZM175.613 45.0273H165.711V47.0273H175.613V45.0273ZM166.711 46.0273C166.711 44.5899 166.33 43.3316 165.396 42.4455C164.472 41.5688 163.177 41.2188 161.697 41.2188V43.2188C162.894 43.2188 163.605 43.5035 164.019 43.8963C164.423 44.2798 164.711 44.9257 164.711 46.0273H166.711ZM161.697 41.2188C160.461 41.2188 159.356 41.5742 158.45 42.3294L159.73 43.8659C160.23 43.4493 160.864 43.2188 161.697 43.2188V41.2188ZM158.463 42.3189C157.538 43.064 157.035 44.0571 157.035 45.2363H159.035C159.035 44.6968 159.236 44.2641 159.717 43.8764L158.463 42.3189ZM157.035 45.2363C157.035 46.5163 157.693 47.5224 158.787 48.2187L159.861 46.5313C159.236 46.1338 159.035 45.7142 159.035 45.2363H157.035ZM158.787 48.2187C159.811 48.8702 161.331 49.3473 163.241 49.7055L163.61 47.7398C161.77 47.3948 160.556 46.9735 159.861 46.5313L158.787 48.2187ZM163.243 49.7059C165.102 50.0508 166.713 50.4597 168.082 50.9285L168.73 49.0364C167.248 48.5286 165.538 48.0976 163.608 47.7394L163.243 49.7059ZM168.081 50.928C170.344 51.707 171.95 52.7637 172.991 54.0472C174.02 55.3174 174.555 56.8817 174.555 58.8008H176.555C176.555 56.4815 175.898 54.457 174.544 52.7878C173.202 51.1318 171.234 49.8984 168.732 49.0369L168.081 50.928ZM174.555 58.8008C174.555 61.333 173.452 63.3948 171.112 65.0438L172.263 66.6788C175.079 64.695 176.555 62.0498 176.555 58.8008H174.555ZM171.109 65.0459C168.764 66.7107 165.663 67.5859 161.727 67.5859V69.5859C165.954 69.5859 169.494 68.6448 172.266 66.6767L171.109 65.0459ZM161.727 67.5859C159.133 67.5859 156.857 67.1199 154.878 66.2122L154.044 68.03C156.323 69.0754 158.891 69.5859 161.727 69.5859V67.5859ZM154.878 66.2122C152.886 65.2986 151.373 64.0759 150.296 62.5582L148.665 63.7153C149.971 65.5569 151.778 66.9905 154.044 68.03L154.878 66.2122ZM150.296 62.5582C149.211 61.0281 148.693 59.4595 148.693 57.834H146.693C146.693 59.9194 147.367 61.8859 148.665 63.7153L150.296 62.5582ZM147.693 58.834H156.922V56.834H147.693V58.834ZM155.922 57.8606C155.967 59.5458 156.545 60.9513 157.798 61.8646L158.976 60.2486C158.353 59.7948 157.955 59.0518 157.922 57.8073L155.922 57.8606ZM157.809 61.8727C158.956 62.6856 160.375 63.0527 161.99 63.0527V61.0527C160.675 61.0527 159.692 60.7558 158.965 60.2406L157.809 61.8727ZM161.99 63.0527C163.446 63.0527 164.724 62.7619 165.644 62.0044L164.372 60.4605C163.964 60.7967 163.23 61.0527 161.99 61.0527V63.0527ZM165.633 62.0133C166.554 61.2758 167.033 60.275 167.033 59.0938H165.033C165.033 59.6703 164.828 60.0953 164.383 60.4516L165.633 62.0133ZM183.729 64.25L183.033 64.9687L183.036 64.971L183.729 64.25ZM181.004 43.5078L180.105 43.0691L180.102 43.0749L181.004 43.5078ZM186.277 37.7656L186.782 38.6289L186.788 38.6257L186.277 37.7656ZM205.027 39.875L204.295 40.5559L204.297 40.5584L205.027 39.875ZM208.895 55.2559V56.2559H209.895V55.2559H208.895ZM189.266 55.2559V54.2559H188.048L188.285 55.4499L189.266 55.2559ZM203.533 57.6875L204.297 57.0416L203.513 56.1158L202.754 57.0611L203.533 57.6875ZM208.045 63.0195L208.855 63.606L209.314 62.9716L208.808 62.3736L208.045 63.0195ZM202.801 67.0918L203.206 68.0059L203.21 68.0043L202.801 67.0918ZM189.266 49.0742L188.276 48.9328L188.113 50.0742H189.266V49.0742ZM199.227 49.0742V50.0742H200.227V49.0742H199.227ZM199.227 48.3125L198.227 48.2878L198.227 48.3002V48.3125H199.227ZM198.025 44.6504L197.302 45.3413L197.31 45.3493L198.025 44.6504ZM195.535 67.5859C190.884 67.5859 187.212 66.2111 184.421 63.529L183.036 64.971C186.26 68.0702 190.46 69.5859 195.535 69.5859V67.5859ZM184.424 63.5313C181.633 60.8314 180.217 57.3226 180.217 52.9121H178.217C178.217 57.7985 179.808 61.8483 183.033 64.9687L184.424 63.5313ZM180.217 52.9121V52.0918H178.217V52.9121H180.217ZM180.217 52.0918C180.217 48.973 180.789 46.2641 181.905 43.9408L180.102 43.0749C178.836 45.7125 178.217 48.7262 178.217 52.0918H180.217ZM181.903 43.9465C183.03 41.6369 184.654 39.8734 186.782 38.6289L185.773 36.9024C183.292 38.3531 181.4 40.4177 180.105 43.0691L181.903 43.9465ZM186.788 38.6257C188.912 37.3655 191.463 36.7148 194.48 36.7148V34.7148C191.17 34.7148 188.252 35.4314 185.767 36.9056L186.788 38.6257ZM194.48 36.7148C198.709 36.7148 201.939 38.0219 204.295 40.5558L205.76 39.1942C202.959 36.1812 199.158 34.7148 194.48 34.7148V36.7148ZM204.297 40.5584C206.654 43.0754 207.895 46.6494 207.895 51.418H209.895C209.895 46.3037 208.557 42.1824 205.757 39.1916L204.297 40.5584ZM207.895 51.418V55.2559H209.895V51.418H207.895ZM208.895 54.2559H189.266V56.2559H208.895V54.2559ZM188.285 55.4499C188.673 57.4119 189.542 59.0222 190.931 60.2063L192.229 58.6843C191.235 57.8372 190.562 56.6545 190.247 55.0618L188.285 55.4499ZM190.931 60.2063C192.34 61.4069 194.129 61.9688 196.209 61.9688V59.9688C194.5 59.9688 193.203 59.5149 192.229 58.6843L190.931 60.2063ZM196.209 61.9688C199.598 61.9688 202.342 60.7665 204.313 58.3139L202.754 57.0611C201.209 58.9835 199.07 59.9688 196.209 59.9688V61.9688ZM202.77 58.3334L207.282 63.6655L208.808 62.3736L204.297 57.0416L202.77 58.3334ZM207.235 62.433C206.125 63.9663 204.527 65.2221 202.392 66.1793L203.21 68.0043C205.606 66.9302 207.504 65.4712 208.855 63.606L207.235 62.433ZM202.395 66.1777C200.284 67.1139 198.001 67.5859 195.535 67.5859V69.5859C198.264 69.5859 200.825 69.0619 203.206 68.0059L202.395 66.1777ZM194.422 42.332C192.732 42.332 191.294 42.9038 190.221 44.0995C189.178 45.2607 188.564 46.9152 188.276 48.9328L190.256 49.2156C190.514 47.4051 191.033 46.1885 191.709 45.4357C192.354 44.7173 193.221 44.332 194.422 44.332V42.332ZM189.266 50.0742H199.227V48.0742H189.266V50.0742ZM200.227 49.0742V48.3125H198.227V49.0742H200.227ZM200.226 48.3372C200.27 46.5745 199.823 45.0594 198.741 43.9515L197.31 45.3493C197.907 45.9602 198.261 46.8864 198.227 48.2878L200.226 48.3372ZM198.748 43.9595C197.67 42.8308 196.175 42.332 194.422 42.332V44.332C195.793 44.332 196.701 44.7122 197.302 45.3412L198.748 43.9595ZM217.068 53.3516L216.579 54.2237L216.587 54.2282L217.068 53.3516ZM215.75 38.5566L216.365 39.345L216.369 39.3419L215.75 38.5566ZM235.262 38.5566L234.664 39.3581L235.262 38.5566ZM239.07 46.0273V47.0273H240.07V46.0273H239.07ZM229.168 46.0273H228.168V47.0273H229.168V46.0273ZM222.547 43.0977L223.174 43.8764L223.181 43.8712L223.187 43.8659L222.547 43.0977ZM226.883 48.7227L226.699 49.7055L226.7 49.7059L226.883 48.7227ZM231.863 49.9824L232.189 49.0369L232.187 49.0364L231.863 49.9824ZM235.145 65.8613L234.569 65.0438L234.566 65.0459L235.145 65.8613ZM211.15 57.834V56.834H210.15V57.834H211.15ZM220.379 57.834L221.379 57.8073L221.353 56.834H220.379V57.834ZM221.844 61.0566L221.255 61.8647L221.266 61.8727L221.844 61.0566ZM228.465 61.2324L227.84 60.4516L227.835 60.456L227.829 60.4605L228.465 61.2324ZM230.49 59.0938C230.49 57.8169 229.784 56.849 228.672 56.2064L227.672 57.9381C228.317 58.3112 228.49 58.6909 228.49 59.0938H230.49ZM228.672 56.2064C227.645 55.6129 225.835 55.0598 223.379 54.514L222.945 56.4664C225.411 57.0144 226.941 57.5161 227.672 57.9381L228.672 56.2064ZM223.379 54.514C220.978 53.9805 219.043 53.2947 217.549 52.4749L216.587 54.2282C218.296 55.1662 220.424 55.9062 222.945 56.4664L223.379 54.514ZM217.558 52.4794C216.066 51.6429 214.976 50.66 214.24 49.5479L212.572 50.6513C213.516 52.0783 214.867 53.2633 216.579 54.2237L217.558 52.4794ZM214.24 49.5479C213.517 48.4548 213.146 47.1948 213.146 45.7344H211.146C211.146 47.5552 211.616 49.2053 212.572 50.6513L214.24 49.5479ZM213.146 45.7344C213.146 43.1487 214.192 41.0408 216.365 39.345L215.135 37.7683C212.503 39.8224 211.146 42.4997 211.146 45.7344H213.146ZM216.369 39.3419C218.552 37.6204 221.46 36.7148 225.184 36.7148V34.7148C221.134 34.7148 217.753 35.7038 215.131 37.7714L216.369 39.3419ZM225.184 36.7148C229.216 36.7148 232.345 37.6282 234.664 39.3581L235.86 37.7552C233.1 35.696 229.51 34.7148 225.184 34.7148V36.7148ZM234.664 39.3581C236.958 41.0698 238.07 43.2668 238.07 46.0273H240.07C240.07 42.616 238.644 39.8325 235.86 37.7552L234.664 39.3581ZM239.07 45.0273H229.168V47.0273H239.07V45.0273ZM230.168 46.0273C230.168 44.5899 229.787 43.3316 228.853 42.4455C227.929 41.5688 226.634 41.2188 225.154 41.2188V43.2188C226.351 43.2188 227.062 43.5035 227.476 43.8963C227.88 44.2798 228.168 44.9257 228.168 46.0273H230.168ZM225.154 41.2188C223.918 41.2188 222.813 41.5742 221.907 42.3294L223.187 43.8659C223.687 43.4493 224.321 43.2188 225.154 43.2188V41.2188ZM221.92 42.3189C220.995 43.064 220.492 44.0571 220.492 45.2363H222.492C222.492 44.6968 222.693 44.2641 223.174 43.8764L221.92 42.3189ZM220.492 45.2363C220.492 46.5163 221.15 47.5224 222.244 48.2187L223.318 46.5313C222.693 46.1338 222.492 45.7142 222.492 45.2363H220.492ZM222.244 48.2187C223.268 48.8702 224.788 49.3473 226.699 49.7055L227.067 47.7398C225.227 47.3948 224.013 46.9735 223.318 46.5313L222.244 48.2187ZM226.7 49.7059C228.559 50.0508 230.17 50.4597 231.539 50.9285L232.187 49.0364C230.705 48.5286 228.995 48.0976 227.065 47.7394L226.7 49.7059ZM231.538 50.928C233.801 51.707 235.407 52.7637 236.448 54.0472C237.477 55.3174 238.012 56.8817 238.012 58.8008H240.012C240.012 56.4815 239.355 54.457 238.001 52.7878C236.659 51.1318 234.691 49.8984 232.189 49.0369L231.538 50.928ZM238.012 58.8008C238.012 61.333 236.909 63.3948 234.569 65.0438L235.72 66.6788C238.536 64.695 240.012 62.0498 240.012 58.8008H238.012ZM234.566 65.0459C232.221 66.7107 229.12 67.5859 225.184 67.5859V69.5859C229.411 69.5859 232.951 68.6448 235.723 66.6767L234.566 65.0459ZM225.184 67.5859C222.59 67.5859 220.314 67.1199 218.335 66.2122L217.501 68.03C219.78 69.0754 222.348 69.5859 225.184 69.5859V67.5859ZM218.335 66.2122C216.343 65.2986 214.83 64.0759 213.753 62.5582L212.122 63.7153C213.428 65.5569 215.235 66.9905 217.501 68.03L218.335 66.2122ZM213.753 62.5582C212.668 61.0281 212.15 59.4595 212.15 57.834H210.15C210.15 59.9194 210.824 61.8859 212.122 63.7153L213.753 62.5582ZM211.15 58.834H220.379V56.834H211.15V58.834ZM219.379 57.8606C219.424 59.5458 220.002 60.9513 221.255 61.8646L222.433 60.2486C221.811 59.7948 221.412 59.0518 221.379 57.8073L219.379 57.8606ZM221.266 61.8727C222.413 62.6856 223.832 63.0527 225.447 63.0527V61.0527C224.132 61.0527 223.149 60.7558 222.422 60.2406L221.266 61.8727ZM225.447 63.0527C226.903 63.0527 228.181 62.7619 229.101 62.0044L227.829 60.4605C227.421 60.7967 226.687 61.0527 225.447 61.0527V63.0527ZM229.09 62.0133C230.011 61.2758 230.49 60.275 230.49 59.0938H228.49C228.49 59.6703 228.285 60.0953 227.84 60.4516L229.09 62.0133Z" fill="white"/>
</svg>
