<svg width="80" height="80" viewBox="0 0 80 80" fill="none" xmlns="http://www.w3.org/2000/svg">
<g clip-path="url(#clip0_1133_3295)">
<path d="M80 40C80.005 44.3739 79.2913 48.719 77.8876 52.8615C77.8071 53.0982 77.7247 53.3341 77.6402 53.5692C76.1537 57.6801 74.0042 61.5198 71.2769 64.9361C70.4627 65.9574 69.6 66.9365 68.6888 67.8734C67.7775 68.8118 66.8209 69.7045 65.8189 70.5515C60.23 75.291 53.4409 78.3953 46.2 79.5219H46.1988C45.2757 79.6651 44.3436 79.7767 43.4024 79.8568C42.2817 79.9515 41.1475 79.9992 40 80C34.6636 80.007 29.38 78.9427 24.4625 76.8702C19.5449 74.7978 15.0934 71.7593 11.3716 67.9349C11.1101 67.6675 10.8525 67.3961 10.5988 67.1207C9.96688 66.4355 9.35899 65.729 8.77516 65.0012C8.44735 64.5917 8.12743 64.1759 7.8154 63.7538C5.89339 61.1572 4.29427 58.3365 3.05327 55.3538C2.52403 54.0835 2.06186 52.7863 1.66865 51.4675C1.64025 51.374 1.61303 51.2805 1.58581 51.187C1.52664 50.9858 1.46944 50.7834 1.41422 50.5799C0.47281 47.1322 -0.00281596 43.5739 1.25413e-05 40C1.25413e-05 17.9089 17.9089 0 40 0C62.0911 0 80 17.9089 80 40Z" fill="#F2F2F2"/>
<path d="M16.9643 23.9093C16.9024 24.2853 16.9237 24.6703 17.0266 25.0372C17.1296 25.4041 17.3118 25.744 17.5603 26.0328C17.8088 26.3217 18.1176 26.5526 18.465 26.7092C18.8124 26.8658 19.1899 26.9443 19.571 26.9393L25.9561 45.5183L30.0303 42.7183L22.1653 24.1103C22.1144 23.4708 21.8306 22.8722 21.3678 22.4279C20.9049 21.9836 20.2952 21.7245 19.6541 21.6997C19.013 21.6749 18.3851 21.8862 17.8894 22.2934C17.3936 22.7007 17.0645 23.2756 16.9643 23.9093Z" fill="#A0616A"/>
<path d="M50.2906 30.1954C47.4551 33.4215 40.4634 39.1067 34.7036 43.0215C33.4587 43.8676 32.2705 44.6298 31.1948 45.2676C30.4681 45.6984 29.7924 46.0712 29.1841 46.3753C28.7759 46.5787 28.33 46.6956 27.8745 46.7186C27.4189 46.7417 26.9635 46.6705 26.5368 46.5094C26.1101 46.3483 25.7213 46.1008 25.3946 45.7825C25.068 45.4641 24.8106 45.0818 24.6386 44.6593L20.6504 35.0108L22.0303 34.096L25.4326 31.8392L26.2054 31.328L29.396 38.9268L32.7604 36.2262L34.8492 34.5493L44.3711 26.9079L45.1924 26.6641L47.1084 28.5339L48.4634 29.857L49.738 30.0783C49.9285 30.1114 50.1131 30.1505 50.2906 30.1954Z" fill="#B6000D"/>
<path d="M75.73 56.7054C75.9276 56.9563 76.1324 57.206 76.3371 57.4569C75.6319 58.905 74.8391 60.3088 73.9631 61.6604C73.8981 61.6143 73.833 61.5682 73.7679 61.522C73.7576 61.5164 73.7477 61.51 73.7383 61.5031C73.4957 61.3303 73.2519 61.1599 73.0093 60.9871V60.9859C72.8092 60.3048 72.6974 59.6008 72.6768 58.8912C72.8019 58.8625 72.9152 58.796 73.0012 58.7008C73.0873 58.6055 73.142 58.4861 73.1579 58.3587C73.1738 58.2313 73.1501 58.1021 73.0901 57.9887C73.03 57.8752 72.9366 57.7829 72.8223 57.7243C72.7904 57.6687 72.7679 57.6285 72.7359 57.5717C72.7371 57.5575 72.7395 57.5421 72.7407 57.5279C72.9265 56.0498 74.8105 55.5338 75.73 56.7054Z" fill="white"/>
<path d="M77.854 51.6405C77.9961 52.031 78.1254 52.4259 78.2422 52.8251C78.1617 53.0618 78.0793 53.2977 77.9949 53.5328C77.9629 53.4085 77.9298 53.2842 77.8955 53.16C77.703 52.4691 77.4718 51.7895 77.2032 51.1245C76.983 50.5789 76.7393 50.0448 76.4718 49.5221C75.0175 46.6826 72.91 44.2288 70.3227 42.3624C69.2534 42.1151 68.2857 41.5459 67.5499 40.7316C67.2845 40.439 67.0625 40.1098 66.8907 39.7541C66.9996 39.7387 67.1085 39.7174 67.215 39.6949C67.2481 39.6878 67.2825 39.6795 67.3156 39.6724L67.3286 39.67C67.445 39.643 67.5512 39.583 67.6343 39.4971C67.7174 39.4112 67.7739 39.3031 67.7971 39.1858C67.8202 39.0686 67.8089 38.9471 67.7647 38.8361C67.7204 38.7251 67.645 38.6292 67.5475 38.56C67.4872 38.5162 67.4256 38.4736 67.3653 38.431C67.273 38.3635 67.1795 38.2996 67.086 38.2334C67.0761 38.2272 67.0667 38.2205 67.0576 38.2132C66.9511 38.1375 66.8446 38.0641 66.7393 37.9872C66.821 37.7235 66.9623 37.4822 67.1523 37.2819C67.8138 36.599 68.9949 36.6144 69.7665 37.1706C70.5393 37.7269 70.9274 38.7008 70.9771 39.6499C71.0209 40.463 70.8458 41.2677 70.615 42.0523C70.673 42.0949 70.7333 42.1351 70.7913 42.1789C71.8568 42.9685 72.8421 43.8608 73.7333 44.8428C73.2185 43.6215 73.0316 42.0286 73.1653 40.9316C73.318 39.6819 73.925 38.4949 74.4221 37.3127C75.0174 35.8925 77.0481 35.8736 77.6209 37.3032C77.6268 37.3174 77.6327 37.3304 77.6375 37.3446C77.5416 37.4405 77.4493 37.5399 77.3606 37.6428C77.2491 37.7726 77.1794 37.9329 77.1607 38.1029C77.1419 38.2729 77.1749 38.4446 77.2554 38.5955C77.3358 38.7465 77.4599 38.8696 77.6115 38.9487C77.7631 39.0279 77.9351 39.0595 78.1049 39.0393L78.1227 39.0369C78.1965 39.4588 78.2384 39.8857 78.2481 40.3138C78.2628 41.5118 78.0299 42.6999 77.564 43.8036C77.098 44.9074 76.4091 45.903 75.5404 46.728C75.4836 46.7813 75.428 46.8334 75.37 46.8843C75.9182 47.6639 76.4106 48.4813 76.8434 49.3304C77.2276 50.0789 77.5651 50.8503 77.854 51.6405Z" fill="white"/>
<path d="M55.0516 40.5386L54.6943 65.0842L25.8232 64.2558L30.4339 54.0783C30.4008 53.7516 32.4576 51.4593 32.4457 51.1197C32.4102 50.1244 33.1534 49.2025 33.2741 48.1611C33.5203 46.0132 32.1108 37.9019 32.7605 36.2262C33.0373 35.4779 33.3919 34.7607 33.8185 34.0865C34.1877 33.528 34.5664 33.1516 34.9286 33.0155L35.996 30.528L36.9428 29.1079L44.3712 26.9079L45.1925 26.6641L47.1085 28.5339L48.4635 29.857L49.738 30.0783C49.9286 30.1114 50.1132 30.1505 50.2907 30.1954C51.1457 30.3926 51.9425 30.7874 52.6173 31.3481C54.8422 33.238 55.1014 36.7931 55.0516 40.5386Z" fill="#B6000D"/>
<path d="M71.6317 64.8999C70.8175 65.9212 69.9547 66.9003 69.0435 67.8372L65.9216 67.8396L49.1323 67.8585L46.1098 67.862L44.1003 67.8644L41.111 67.8668L38.8115 67.8691L34.5642 67.8739L32.0589 67.8774L26.7831 67.8822L24.2648 67.8857L17.2861 67.8928L12.9027 67.8976L11.7263 67.8987C11.4648 67.6313 11.2072 67.3599 10.9536 67.0845C10.3216 66.3993 9.71371 65.6928 9.12988 64.965L11.5654 64.9626L13.2246 64.9614L17.066 64.9567L24.479 64.9496L26.9843 64.9472L27.9973 64.9461H28.0009L28.7962 64.9449L29.1524 64.9437L30.0648 64.9425H30.4506L33.1559 64.9401L38.9914 64.933L41.5595 64.9307L44.0187 64.9283L46.324 64.9259L49.6317 64.9224L67.2979 64.9046L71.6317 64.8999Z" fill="#CCCCCC"/>
<path d="M31.688 28.0438L31.6816 28.0444C31.3402 28.0762 31.0001 27.971 30.7362 27.7521C30.4724 27.5331 30.3063 27.2183 30.2745 26.8769L29.6015 19.6936C29.4797 18.4067 29.6179 17.1085 30.0078 15.8761C30.7722 13.4708 32.4352 11.4533 34.6504 10.244C35.7942 9.62119 37.0523 9.23644 38.3488 9.11292C43.6528 8.6076 45.5912 9.71228 48.8676 17.8018C52.1441 25.8914 49.5417 24.9962 49.5417 24.9962C49.5581 25.1693 49.5395 25.3439 49.4869 25.5097C49.3838 25.8331 49.1597 26.1042 48.8614 26.2663C48.7084 26.3493 48.5402 26.4006 48.3669 26.4174C42.0963 28.0113 35.7691 29.689 31.6869 28.0439L31.688 28.0438Z" fill="#404042"/>
<path d="M43.3599 15.9195C44.1471 17.0841 44.5714 18.4559 44.5794 19.8616C44.5874 21.2672 44.1786 22.6437 43.4047 23.8172C42.6309 24.9907 41.5266 25.9085 40.2314 26.4548C38.9362 27.0011 37.5082 27.1513 36.1277 26.8864C35.2138 26.7141 34.3433 26.3621 33.5664 25.8509C32.7896 25.3397 32.1219 24.6794 31.602 23.9083C30.8166 22.7441 30.3934 21.3733 30.3858 19.9689C30.3783 18.5645 30.7868 17.1893 31.5597 16.0167C32.3326 14.8441 33.4355 13.9265 34.7291 13.3798C36.0228 12.8331 37.4493 12.6817 38.829 12.9446C39.7435 13.1159 40.615 13.4671 41.3928 13.9778C42.1706 14.4886 42.8392 15.1486 43.36 15.9198L43.3599 15.9195Z" fill="#9E616A"/>
<path d="M27.3786 20.492C27.2823 19.4743 27.3917 18.4475 27.7 17.4729C27.7715 15.0886 28.4633 12.929 31.3714 13.0196C32.2703 12.5306 33.2584 12.2274 34.2769 12.1281L35.7139 11.9862C35.7301 11.9846 35.7462 11.983 35.7624 11.9815C36.758 11.8888 37.7621 11.9932 38.7174 12.2886C39.6727 12.584 40.5605 13.0647 41.33 13.7031C42.0995 14.3416 42.7358 15.1254 43.2024 16.0098C43.669 16.8942 43.9569 17.8618 44.0495 18.8574L44.063 19.0013L41.0226 19.2986L39.7141 16.4983L39.7787 19.4208L38.2084 19.5749L37.5485 18.1621L37.5807 19.6356C35.2492 21.689 31.7137 21.7966 27.3935 20.636L27.3786 20.492Z" fill="#404042"/>
<path d="M37.1036 27.3081C37.0777 27.5448 37.1188 27.784 37.2221 27.9985C37.2742 28.1083 37.3414 28.2104 37.4218 28.3016C37.4905 28.3792 37.5683 28.4485 37.6533 28.508C37.9052 28.6833 38.2113 28.7632 38.5167 28.7332C38.5358 28.7313 38.5547 28.729 38.5737 28.7263C38.5927 28.7236 38.6116 28.7205 38.6304 28.7169C38.6495 28.7135 38.6684 28.7096 38.6872 28.7052C38.706 28.7007 38.7249 28.6959 38.7438 28.6907L39.8049 28.3934L40.9942 25.0775L41.2668 27.9871L46.0919 26.6437L44.9351 14.2964L36.7109 15.1068L36.9365 15.3239C37.6859 16.0534 38.2195 16.9754 38.4787 17.9886C38.7359 19.0153 38.8153 20.0785 38.7134 21.1321C38.6182 22.1973 38.421 23.251 38.1244 24.2786C37.8662 25.1885 37.5559 26.0828 37.1948 26.957C37.1481 27.0692 37.1174 27.1874 37.1036 27.3081Z" fill="#404042"/>
<path d="M38.1999 66.2377C38.0585 66.2376 37.9189 66.206 37.7912 66.1453L15.0078 66.7266C14.833 66.6437 14.6874 66.5098 14.5902 66.3426C14.4931 66.1753 14.449 65.9824 14.4637 65.7895C14.4785 65.5967 14.5514 65.4128 14.6728 65.2622C14.7942 65.1116 14.9585 65.0014 15.1439 64.9461L30.0494 60.5017C30.2038 60.4557 30.3673 60.4495 30.5247 60.4835L53.581 63.2938C53.7851 63.3379 53.9691 63.4475 54.1049 63.606C54.2408 63.7645 54.321 63.963 54.3335 64.1714C54.3459 64.3798 54.2898 64.5865 54.1737 64.76C54.0576 64.9335 53.888 65.0642 53.6906 65.1323L38.5121 66.1851C38.4117 66.2198 38.3062 66.2376 38.1999 66.2377Z" fill="#404042"/>
<path d="M39.0383 64.6517C38.9354 64.6517 38.8342 64.6254 38.7444 64.5752L20.241 65.4396C20.1359 65.3807 20.051 65.2915 19.9973 65.1836C19.9437 65.0758 19.9238 64.9542 19.9401 64.8349C19.9565 64.7155 20.0085 64.6039 20.0892 64.5145C20.17 64.4251 20.2758 64.362 20.3928 64.3336L27.0915 62.7078C27.196 62.6825 27.3055 62.6857 27.4083 62.7171L44.6099 62.6964C44.7324 62.7339 44.8397 62.8096 44.916 62.9124C44.9923 63.0152 45.0338 63.1398 45.0342 63.2679C45.0347 63.3959 44.9941 63.5208 44.9185 63.6241C44.8429 63.7275 44.7362 63.8039 44.614 63.8423L39.2172 64.6243C39.1593 64.6425 39.099 64.6517 39.0383 64.6517Z" fill="#2F2E41"/>
<path d="M37.0909 63.6655C37.4112 63.872 37.7728 64.0057 38.1504 64.0573C38.5279 64.1089 38.9122 64.0771 39.2762 63.9641C39.6401 63.8511 39.9748 63.6597 40.2568 63.4034C40.5387 63.147 40.761 62.832 40.9081 62.4804L60.4933 64.0189L59.5466 59.1668L39.3457 58.9743C38.7387 58.7665 38.0766 58.7885 37.4848 59.0362C36.893 59.284 36.4126 59.7402 36.1347 60.3184C35.8567 60.8966 35.8006 61.5568 35.9768 62.1736C36.153 62.7905 36.5494 63.3213 37.0909 63.6655Z" fill="#A0616A"/>
<path d="M48.6587 32.0663C48.6587 32.0663 51.6173 29.6994 55.1676 33.9598C57.5619 36.8329 62.1805 54.2017 62.5635 61.3991C62.5877 61.8545 62.5176 62.3101 62.3575 62.7371C62.1974 63.1642 61.9509 63.5536 61.6333 63.8809C61.3157 64.2082 60.9339 64.4664 60.5119 64.6393C60.0899 64.8122 59.6367 64.896 59.1807 64.8856L48.7415 64.7039L47.5742 58.1417L55.8161 58.2393L48.6587 32.0663Z" fill="#B6000D"/>
<path d="M36.9333 66.2403C36.5751 66.24 36.2207 66.1682 35.8906 66.0292L14.7732 66.511C14.2159 66.2786 13.7533 65.865 13.4601 65.3371C13.167 64.8092 13.0604 64.1978 13.1577 63.6019L12.373 45.0562C12.4771 44.3937 12.8258 43.7944 13.3502 43.3765C13.8746 42.9586 14.5367 42.7525 15.2056 42.7989L34.8107 43.6121C35.187 43.6367 35.554 43.7402 35.8877 43.9158C36.2215 44.0915 36.5146 44.3353 36.7481 44.6314C36.9815 44.9276 37.1501 45.2696 37.2429 45.6351C37.3357 46.0007 37.3506 46.3816 37.2867 46.7533L39.5837 64.004C39.4757 64.6291 39.1507 65.196 38.6659 65.605C38.1811 66.0141 37.5676 66.239 36.9333 66.2403Z" fill="#404042"/>
<path d="M20.8976 11.0258L12.0846 11.001C11.8484 11.0007 11.6217 11.0941 11.4542 11.2607C11.2867 11.4273 11.1921 11.6535 11.1911 11.8897L11.1592 23.5596C11.1587 23.7955 11.2519 24.0221 11.4183 24.1894C11.5847 24.3567 11.8108 24.4511 12.0468 24.4519L16.9355 24.4661L20.861 24.4767C21.0971 24.4772 21.3238 24.3838 21.4911 24.2171C21.6585 24.0504 21.7528 23.8241 21.7533 23.588L21.7556 22.898L21.7864 11.9193C21.7869 11.683 21.6935 11.4562 21.5269 11.2887C21.3603 11.1211 21.1339 11.0266 20.8976 11.0258Z" fill="#E6E6E6"/>
<path d="M20.2767 11.723L12.7027 11.7017C12.4815 11.7014 12.2693 11.7888 12.1125 11.9447C11.9556 12.1007 11.867 12.3124 11.866 12.5336L11.8447 20.0366C11.8432 21.0219 12.2326 21.9676 12.9275 22.6662C13.6223 23.3648 14.5659 23.7593 15.5512 23.7632L16.9903 23.7667L20.2435 23.7762C20.4648 23.7767 20.6772 23.6894 20.834 23.5334C20.9909 23.3774 21.0795 23.1655 21.0802 22.9443L21.0826 22.1892L21.1086 12.5596C21.1091 12.3384 21.0218 12.126 20.8658 11.9692C20.7098 11.8123 20.4979 11.7237 20.2767 11.723Z" fill="white"/>
<path d="M19.4258 16.8496H13.5205C13.4739 16.8496 13.4278 16.8588 13.3848 16.8766C13.3418 16.8944 13.3027 16.9205 13.2698 16.9534C13.2369 16.9863 13.2108 17.0254 13.193 17.0684C13.1752 17.1114 13.166 17.1575 13.166 17.204C13.166 17.2506 13.1752 17.2967 13.193 17.3397C13.2108 17.3827 13.2369 17.4218 13.2698 17.4547C13.3027 17.4876 13.3418 17.5137 13.3848 17.5315C13.4278 17.5493 13.4739 17.5585 13.5205 17.5585H19.4258C19.5198 17.5585 19.6099 17.5211 19.6764 17.4547C19.7429 17.3882 19.7802 17.2981 19.7802 17.204C19.7802 17.11 19.7429 17.0199 19.6764 16.9534C19.6099 16.887 19.5198 16.8496 19.4258 16.8496Z" fill="#B6000D"/>
<path d="M14.8187 14.9067H13.5205C13.4265 14.9067 13.3363 14.9441 13.2698 15.0106C13.2034 15.077 13.166 15.1672 13.166 15.2612C13.166 15.3552 13.2034 15.4453 13.2698 15.5118C13.3363 15.5783 13.4265 15.6156 13.5205 15.6156H14.8187C14.9127 15.6156 15.0028 15.5783 15.0693 15.5118C15.1358 15.4453 15.1731 15.3552 15.1731 15.2612C15.1731 15.1672 15.1358 15.077 15.0693 15.0106C15.0028 14.9441 14.9127 14.9067 14.8187 14.9067Z" fill="#B6000D"/>
<path d="M19.4258 19.9658H13.5205C13.4265 19.9658 13.3363 20.0032 13.2698 20.0696C13.2034 20.1361 13.166 20.2263 13.166 20.3203C13.166 20.4143 13.2034 20.5044 13.2698 20.5709C13.3363 20.6374 13.4265 20.6747 13.5205 20.6747H19.4258C19.5198 20.6747 19.6099 20.6374 19.6764 20.5709C19.7429 20.5044 19.7802 20.4143 19.7802 20.3203C19.7802 20.2263 19.7429 20.1361 19.6764 20.0696C19.6099 20.0032 19.5198 19.9658 19.4258 19.9658Z" fill="#B6000D"/>
<path d="M19.4252 18.4082H13.5199C13.426 18.4082 13.336 18.4455 13.2697 18.5118C13.2033 18.5782 13.166 18.6682 13.166 18.762C13.166 18.8559 13.2033 18.9459 13.2697 19.0123C13.336 19.0786 13.426 19.1159 13.5199 19.1159H19.4252C19.519 19.1159 19.609 19.0786 19.6754 19.0123C19.7418 18.9459 19.779 18.8559 19.779 18.762C19.779 18.6682 19.7418 18.5782 19.6754 18.5118C19.609 18.4455 19.519 18.4082 19.4252 18.4082Z" fill="#B6000D"/>
<path d="M18.2783 16.16C17.8636 16.16 17.4582 16.0371 17.1134 15.8067C16.7687 15.5763 16.4999 15.2489 16.3412 14.8658C16.1826 14.4826 16.141 14.0611 16.2219 13.6544C16.3028 13.2477 16.5025 12.8741 16.7957 12.5809C17.0889 12.2877 17.4625 12.088 17.8692 12.0071C18.2759 11.9262 18.6975 11.9677 19.0806 12.1264C19.4637 12.2851 19.7912 12.5538 20.0215 12.8986C20.2519 13.2434 20.3749 13.6487 20.3749 14.0634C20.3742 14.6193 20.1531 15.1522 19.7601 15.5452C19.367 15.9383 18.8341 16.1594 18.2783 16.16ZM18.2783 12.1125C17.8924 12.1125 17.5152 12.2269 17.1944 12.4413C16.8736 12.6557 16.6235 12.9603 16.4758 13.3168C16.3282 13.6733 16.2895 14.0656 16.3648 14.444C16.4401 14.8225 16.6259 15.1701 16.8987 15.4429C17.1716 15.7158 17.5192 15.9016 17.8976 15.9768C18.2761 16.0521 18.6683 16.0135 19.0248 15.8658C19.3813 15.7182 19.686 15.4681 19.9004 15.1473C20.1147 14.8265 20.2292 14.4493 20.2292 14.0634C20.2286 13.5462 20.0229 13.0503 19.6571 12.6846C19.2914 12.3188 18.7955 12.1131 18.2783 12.1125Z" fill="#B6000D"/>
<path d="M19.1588 14.8753C19.014 14.1276 18.7124 13.4191 18.2738 12.7965C18.2639 12.7803 18.2501 12.767 18.2336 12.7578C18.217 12.7485 18.1984 12.7437 18.1795 12.7437C18.1605 12.7437 18.1419 12.7485 18.1254 12.7578C18.1089 12.767 18.095 12.7803 18.0851 12.7965C17.7032 13.4645 17.459 14.2024 17.3672 14.9664C17.3502 15.1057 17.5689 15.1045 17.5857 14.9664C17.6164 14.7188 17.6643 14.4736 17.729 14.2327C17.7373 14.231 17.7455 14.2285 17.7534 14.2252C18.044 14.0793 18.3723 14.0258 18.6942 14.072C18.697 14.0724 18.6997 14.0718 18.7025 14.0721C18.8088 14.3516 18.891 14.6398 18.9481 14.9334C18.9747 15.0714 19.1854 15.013 19.1588 14.8753ZM17.8076 13.9646C17.908 13.6534 18.0357 13.3517 18.1893 13.0631C18.3518 13.3115 18.493 13.5732 18.6113 13.8456C18.3379 13.825 18.0633 13.8657 17.8076 13.9646Z" fill="#B6000D"/>
</g>
<defs>
<clipPath id="clip0_1133_3295">
<rect width="80" height="80" fill="white"/>
</clipPath>
</defs>
</svg>
