<svg width="80" height="80" viewBox="0 0 80 80" fill="none" xmlns="http://www.w3.org/2000/svg">
<g clip-path="url(#clip0_1133_1540)">
<path d="M75.2561 60.8632H15.1225C14.5867 60.8626 14.073 60.6641 13.6942 60.3112C13.3153 59.9584 13.1022 59.4799 13.1016 58.9809V13.3769C13.1022 12.8779 13.3153 12.3994 13.6942 12.0466C14.073 11.6937 14.5867 11.4952 15.1225 11.4946H75.2561C75.7919 11.4952 76.3056 11.6937 76.6845 12.0466C77.0633 12.3994 77.2765 12.8779 77.2771 13.3769V58.9809C77.2765 59.4799 77.0633 59.9584 76.6845 60.3112C76.3056 60.6641 75.7919 60.8626 75.2561 60.8632Z" fill="#E6E6E6"/>
<path d="M69.4132 59.5939H16.4858C15.95 59.5933 15.4363 59.3949 15.0575 59.042C14.6786 58.6891 14.4655 58.2107 14.4648 57.7117V14.6479C14.4655 14.1489 14.6786 13.6704 15.0575 13.3176C15.4363 12.9647 15.95 12.7662 16.4858 12.7656H73.8928C74.4286 12.7662 74.9422 12.9647 75.3211 13.3176C75.7 13.6704 75.9131 14.1489 75.9137 14.6479V53.5395C75.9118 55.1447 75.2263 56.6836 74.0076 57.8186C72.789 58.9537 71.1367 59.5921 69.4132 59.5939Z" fill="white"/>
<path d="M54.8689 22.5026H30.6998C30.6313 22.5027 30.5634 22.4903 30.5001 22.4659C30.4368 22.4416 30.3792 22.4058 30.3307 22.3607C30.2822 22.3156 30.2437 22.2621 30.2175 22.2031C30.1912 22.1442 30.1777 22.081 30.1777 22.0172C30.1777 21.9534 30.1912 21.8902 30.2175 21.8312C30.2437 21.7723 30.2822 21.7187 30.3307 21.6736C30.3792 21.6285 30.4368 21.5928 30.5001 21.5685C30.5634 21.5441 30.6313 21.5316 30.6998 21.5317H54.8689C55.007 21.532 55.1393 21.5832 55.2369 21.6742C55.3345 21.7652 55.3892 21.8886 55.3892 22.0172C55.3892 22.1458 55.3345 22.2691 55.2369 22.3602C55.1393 22.4512 55.007 22.5024 54.8689 22.5026Z" fill="#B6000D"/>
<path d="M67.1039 27.6823H30.6999C30.5617 27.6823 30.4291 27.6312 30.3314 27.5401C30.2336 27.4491 30.1787 27.3256 30.1787 27.1969C30.1787 27.0681 30.2336 26.9446 30.3314 26.8536C30.4291 26.7626 30.5617 26.7114 30.6999 26.7114H67.1039C67.2421 26.7114 67.3747 26.7626 67.4724 26.8536C67.5702 26.9446 67.6251 27.0681 67.6251 27.1969C67.6251 27.3256 67.5702 27.4491 67.4724 27.5401C67.3747 27.6312 67.2421 27.6823 67.1039 27.6823Z" fill="#E6E6E6"/>
<path d="M67.1038 32.8615H30.6998C30.6313 32.8616 30.5634 32.8491 30.5001 32.8248C30.4368 32.8004 30.3792 32.7647 30.3307 32.7196C30.2822 32.6745 30.2437 32.621 30.2175 32.562C30.1912 32.5031 30.1777 32.4399 30.1777 32.3761C30.1777 32.3122 30.1912 32.2491 30.2175 32.1901C30.2437 32.1312 30.2822 32.0776 30.3307 32.0325C30.3792 31.9874 30.4368 31.9517 30.5001 31.9273C30.5634 31.903 30.6313 31.8905 30.6998 31.8906H67.1038C67.2419 31.8908 67.3742 31.9421 67.4718 32.0331C67.5693 32.1241 67.6241 32.2475 67.6241 32.3761C67.6241 32.5047 67.5693 32.628 67.4718 32.719C67.3742 32.81 67.2419 32.8613 67.1038 32.8615Z" fill="#E6E6E6"/>
<path d="M67.1039 38.0407H30.6999C30.5617 38.0407 30.4291 37.9896 30.3314 37.8985C30.2336 37.8075 30.1787 37.684 30.1787 37.5553C30.1787 37.4265 30.2336 37.303 30.3314 37.212C30.4291 37.121 30.5617 37.0698 30.6999 37.0698H67.1039C67.2421 37.0698 67.3747 37.121 67.4724 37.212C67.5702 37.303 67.6251 37.4265 67.6251 37.5553C67.6251 37.684 67.5702 37.8075 67.4724 37.8985C67.3747 37.9896 67.2421 38.0407 67.1039 38.0407Z" fill="#E6E6E6"/>
<path d="M67.1039 43.2199H30.6999C30.5617 43.2199 30.4291 43.1688 30.3314 43.0777C30.2336 42.9867 30.1787 42.8632 30.1787 42.7345C30.1787 42.6057 30.2336 42.4822 30.3314 42.3912C30.4291 42.3002 30.5617 42.249 30.6999 42.249H67.1039C67.2421 42.249 67.3747 42.3002 67.4724 42.3912C67.5702 42.4822 67.6251 42.6057 67.6251 42.7345C67.6251 42.8632 67.5702 42.9867 67.4724 43.0777C67.3747 43.1688 67.2421 43.2199 67.1039 43.2199Z" fill="#E6E6E6"/>
<path d="M65.4663 51.4737C64.9443 51.4737 64.4341 51.3295 64.0001 51.0594C63.5661 50.7893 63.2278 50.4054 63.028 49.9563C62.8283 49.5072 62.776 49.0129 62.8779 48.5361C62.9797 48.0593 63.2311 47.6213 63.6001 47.2776C63.9692 46.9338 64.4395 46.6997 64.9514 46.6048C65.4634 46.51 65.994 46.5587 66.4763 46.7447C66.9585 46.9308 67.3707 47.2458 67.6607 47.65C67.9507 48.0543 68.1055 48.5295 68.1055 49.0157C68.1055 49.6676 67.8274 50.2928 67.3325 50.7538C66.8375 51.2147 66.1663 51.4737 65.4663 51.4737Z" fill="#B6000D"/>
<path d="M66.9515 48.899L66.2033 47.8819C66.17 47.8366 66.1188 47.8056 66.061 47.7955C66.0031 47.7854 65.9434 47.7972 65.8948 47.8282C65.8463 47.8591 65.8129 47.9068 65.8021 47.9607C65.7913 48.0146 65.8039 48.0702 65.8372 48.1155L66.3211 48.7733H64.4254C64.3563 48.7733 64.2901 48.7988 64.2413 48.8443C64.1925 48.8898 64.165 48.9514 64.165 49.0157C64.165 49.08 64.1925 49.1417 64.2413 49.1872C64.2901 49.2327 64.3563 49.2582 64.4254 49.2582H66.3449L65.8372 49.9484C65.8039 49.9936 65.7913 50.0493 65.8021 50.1031C65.8129 50.157 65.8463 50.2047 65.8948 50.2357C65.9434 50.2667 66.0031 50.2784 66.061 50.2683C66.1188 50.2583 66.17 50.2272 66.2033 50.182L66.9515 49.1649C66.9758 49.1242 66.9886 49.0785 66.9886 49.0319C66.9886 48.9854 66.9758 48.9396 66.9515 48.899L66.9515 48.899Z" fill="white"/>
<path d="M79.7373 4.76927H10.6406C10.5704 4.76788 10.5036 4.74094 10.4545 4.69423C10.4054 4.64753 10.3779 4.58476 10.3779 4.5194C10.3779 4.45404 10.4054 4.39128 10.4545 4.34457C10.5036 4.29786 10.5704 4.27092 10.6406 4.26953H79.7373C79.8075 4.27092 79.8743 4.29786 79.9234 4.34457C79.9725 4.39128 79.9999 4.45404 79.9999 4.5194C79.9999 4.58476 79.9725 4.64753 79.9234 4.69423C79.8743 4.74094 79.8075 4.76788 79.7373 4.76927Z" fill="#CACACA"/>
<path d="M15.2334 2.99398C16.1017 2.99398 16.8057 2.32376 16.8057 1.49699C16.8057 0.670226 16.1017 0 15.2334 0C14.3651 0 13.6611 0.670226 13.6611 1.49699C13.6611 2.32376 14.3651 2.99398 15.2334 2.99398Z" fill="#3F3D56"/>
<path d="M20.665 2.99398C21.5334 2.99398 22.2373 2.32376 22.2373 1.49699C22.2373 0.670226 21.5334 0 20.665 0C19.7967 0 19.0928 0.670226 19.0928 1.49699C19.0928 2.32376 19.7967 2.99398 20.665 2.99398Z" fill="#3F3D56"/>
<path d="M26.0957 2.99398C26.964 2.99398 27.668 2.32376 27.668 1.49699C27.668 0.670226 26.964 0 26.0957 0C25.2274 0 24.5234 0.670226 24.5234 1.49699C24.5234 2.32376 25.2274 2.99398 26.0957 2.99398Z" fill="#3F3D56"/>
<path d="M76.4669 0.371094H72.6087C72.5322 0.372503 72.4594 0.40179 72.4058 0.452662C72.3523 0.503535 72.3223 0.571937 72.3223 0.643181C72.3223 0.714425 72.3523 0.782828 72.4058 0.833701C72.4594 0.884574 72.5322 0.913859 72.6087 0.915268H76.4669C76.5434 0.913859 76.6162 0.884574 76.6698 0.833701C76.7233 0.782828 76.7533 0.714425 76.7533 0.643181C76.7533 0.571937 76.7233 0.503535 76.6698 0.452662C76.6162 0.40179 76.5434 0.372503 76.4669 0.371094Z" fill="#3F3D56"/>
<path d="M76.4669 1.39258H72.6087C72.5322 1.39399 72.4594 1.42327 72.4058 1.47415C72.3523 1.52502 72.3223 1.59342 72.3223 1.66467C72.3223 1.73591 72.3523 1.80431 72.4058 1.85519C72.4594 1.90606 72.5322 1.93534 72.6087 1.93675H76.4669C76.5434 1.93534 76.6162 1.90606 76.6698 1.85519C76.7233 1.80431 76.7533 1.73591 76.7533 1.66467C76.7533 1.59342 76.7233 1.52502 76.6698 1.47415C76.6162 1.42327 76.5434 1.39399 76.4669 1.39258Z" fill="#3F3D56"/>
<path d="M76.4669 2.4126H72.6087C72.5322 2.41401 72.4594 2.44329 72.4058 2.49416C72.3523 2.54504 72.3223 2.61344 72.3223 2.68468C72.3223 2.75593 72.3523 2.82433 72.4058 2.8752C72.4594 2.92608 72.5322 2.95536 72.6087 2.95677H76.4669C76.5434 2.95536 76.6162 2.92608 76.6698 2.8752C76.7233 2.82433 76.7533 2.75593 76.7533 2.68468C76.7533 2.61344 76.7233 2.54504 76.6698 2.49416C76.6162 2.44329 76.5434 2.41401 76.4669 2.4126Z" fill="#3F3D56"/>
<path d="M19.2878 54.0277C19.3935 53.9453 19.4786 53.8423 19.537 53.726C19.5954 53.6096 19.6257 53.4828 19.6258 53.3543C19.6258 53.2259 19.5956 53.099 19.5374 52.9826C19.4791 52.8662 19.3941 52.7632 19.2884 52.6807L18.7162 48.0757L16.8994 48.4675L17.9091 52.8326C17.7721 53.0072 17.7085 53.2224 17.7305 53.4377C17.7526 53.6529 17.8586 53.8532 18.0285 54.0005C18.1985 54.1478 18.4205 54.2319 18.6526 54.237C18.8847 54.242 19.1107 54.1675 19.2878 54.0277Z" fill="#FFB6B6"/>
<path d="M19.0998 48.8268L16.9964 50.0489C16.9964 50.0489 16.8684 50.7651 16.7238 48.9651C16.7087 48.7772 16.8494 48.4498 16.834 48.257C16.8165 48.0394 16.1474 47.9404 16.1298 47.7203C16.1172 47.5636 16.3107 47.4242 16.2982 47.2679C16.2793 47.0312 16.2605 46.7958 16.242 46.5641C16.2266 46.3704 15.9961 46.2475 15.9813 46.0606C15.9663 45.872 16.1669 45.6193 16.1528 45.4406C16.0467 44.1006 16.4134 40.7293 16.4134 40.6607C16.385 40.4886 16.3079 40.3266 16.1899 40.1916L16.3021 39.8789L16.2279 39.2921C16.1303 38.521 16.3044 37.7413 16.7238 37.0704L17.258 36.7446L19.7227 40.6059C18.6855 43.9471 18.0085 45.2595 19.0998 48.8268Z" fill="#B6000D"/>
<path d="M17.459 77.6164H18.7313L19.3369 73.0454H17.459V77.6164Z" fill="#FFB6B6"/>
<path d="M17.0434 76.8049L19.0762 76.6919V77.5031L21.0088 78.7462C21.1043 78.8076 21.1762 78.8958 21.214 78.9979C21.2518 79.1001 21.2536 79.2108 21.2191 79.3139C21.1846 79.4171 21.1156 79.5073 21.0221 79.5713C20.9287 79.6353 20.8157 79.6698 20.6997 79.6698H18.2796L17.8625 78.8675L17.6996 79.6698H16.7871L17.0434 76.8049Z" fill="#2F2E41"/>
<path d="M24.6064 77.6164H25.8788L26.4842 73.0454H24.6064V77.6164Z" fill="#FFB6B6"/>
<path d="M24.1909 76.8049L26.2237 76.6919V77.5031L28.1563 78.7462C28.2517 78.8076 28.3236 78.8958 28.3615 78.9979C28.3993 79.1001 28.4011 79.2108 28.3666 79.3139C28.332 79.4171 28.263 79.5073 28.1696 79.5713C28.0761 79.6353 27.9632 79.6698 27.8472 79.6698H25.4271L25.0099 78.8675L24.847 79.6698H23.9346L24.1909 76.8049Z" fill="#2F2E41"/>
<path d="M16.9188 73.6746H16.9237L17.1684 62.7889C17.0101 62.5044 16.9297 62.1879 16.9345 61.8674C16.9392 61.547 17.029 61.2327 17.1958 60.9524L17.2308 60.8933L17.14 60.5011C17.0233 59.9973 17.0769 59.4721 17.2933 58.9977L17.5215 52.0649C16.706 47.1421 20.5927 43.9316 20.5927 43.9316H26.4151L27.6651 47.9316C28.4915 55.43 28.3415 66.1905 27.0302 73.2698L27.066 73.2866C27.1338 73.3218 27.1844 73.38 27.2074 73.4491C27.2303 73.5182 27.2239 73.5928 27.1893 73.6576C27.1287 73.8211 26.9753 73.9201 26.8465 73.8787L23.7716 73.7791C23.7038 73.7439 23.6532 73.6857 23.6302 73.6166C23.6072 73.5475 23.6137 73.4729 23.6483 73.4081C23.7089 73.2446 23.8623 73.1456 23.9911 73.187L24.2001 73.2855L23.9844 72.8765C23.8545 72.6302 23.7984 72.3559 23.8218 72.0824C23.8453 71.8089 23.9475 71.5463 24.1178 71.3224L24.08 70.422C23.9191 70.2466 23.8084 70.0362 23.758 69.8103C23.7077 69.5844 23.7193 69.3504 23.7919 69.1298L23.9993 68.4993L23.7543 62.6602L23.8038 61.3503L23.7018 59.8641L23.2305 53.1795L21.4465 61.3997L19.6241 73.7573C19.668 73.7941 19.7005 73.8411 19.7185 73.8934C19.7365 73.9457 19.7394 74.0016 19.7267 74.0553C19.7079 74.1264 19.6637 74.1895 19.6012 74.2342C19.5388 74.2788 19.462 74.3024 19.3833 74.3009H16.9099C16.858 74.3009 16.8068 74.2897 16.7604 74.2682C16.7139 74.2467 16.6734 74.2156 16.642 74.1771C16.6106 74.1387 16.5892 74.094 16.5793 74.0465C16.5695 73.9991 16.5716 73.9502 16.5854 73.9036C16.6063 73.8367 16.6502 73.7779 16.7104 73.7366C16.7707 73.6952 16.8439 73.6734 16.9188 73.6746Z" fill="#2F2E41"/>
<path d="M31.0681 52.2381C31.1551 52.1384 31.2176 52.0223 31.2512 51.8977C31.2848 51.7731 31.2887 51.6432 31.2625 51.5171C31.2364 51.391 31.1809 51.2718 31.0999 51.1679C31.0189 51.0639 30.9145 50.9777 30.7939 50.9154L29.2926 46.4956L27.5889 47.2018L29.4707 51.3087C29.3718 51.5043 29.3533 51.727 29.4188 51.9344C29.4844 52.1418 29.6293 52.3197 29.8262 52.4342C30.0231 52.5488 30.2583 52.5921 30.4872 52.5559C30.716 52.5198 30.9227 52.4067 31.0681 52.2381H31.0681Z" fill="#FFB6B6"/>
<path d="M24.8909 38.1871C24.8909 38.1871 26.6031 43.8305 26.5256 44.4006C26.3657 45.5761 18.4976 49.1898 17.9125 47.5817L17.9858 47.0531C17.6902 46.5025 19.4938 44.3171 19.5813 44.0313C19.6925 43.6658 19.1889 42.4657 19.1889 42.4657C19.1889 42.4657 19.537 41.3701 19.4814 40.6919C19.4247 40.0137 19.2569 40.1182 18.6409 39.7C18.025 39.2827 17.0166 37.3526 17.0166 37.3526C17.0166 37.3526 17.4647 35.4742 17.4647 35.1087C17.4647 34.7432 19.3053 34.1206 19.5288 33.9125C19.6261 33.7915 19.708 33.6605 19.7729 33.522C19.8182 33.4376 19.7894 33.2419 19.8378 33.145C19.8687 33.0817 19.9768 33.121 20.0088 33.0558C20.0397 32.9925 20.0129 32.9196 20.0438 32.8572C20.0839 32.7747 20.1808 32.7028 20.2189 32.6251C20.394 32.2682 20.5433 31.9775 20.5897 31.9775C20.7009 31.9775 24.2874 32.4476 24.2874 32.4476C24.4826 32.7288 24.7075 32.991 24.9589 33.2304C25.3514 33.5949 27.1878 34.4823 27.1878 34.4823L24.8909 38.1871Z" fill="#B6000D"/>
<path d="M29.7333 47.6813C29.4531 47.9423 28.0668 49.1403 28.0101 48.8266C27.9545 48.5139 27.9242 48.4765 27.6997 48.3729C27.4752 48.2683 27.4752 48.2165 27.4195 47.851C27.3639 47.4855 26.8592 47.12 26.9159 46.9637C26.9715 46.8073 26.9196 47.0062 26.9196 46.8489C26.9196 46.6925 26.7517 46.1189 26.5271 46.0143C26.3036 45.9097 25.9668 45.8061 26.1357 45.5452C26.3036 45.2843 24.5547 37.4563 24.5547 37.4563L26.1234 34.587L27.1874 34.4824C27.1874 34.4824 27.5107 34.6547 27.612 36.2081C27.6171 36.2867 27.7092 36.4311 27.7131 36.517C27.7164 36.5884 27.6317 36.6002 27.634 36.6768C27.6345 36.6932 27.635 36.7097 27.6354 36.7263C27.6375 36.8024 27.8583 36.8584 27.8616 36.9319C27.8676 37.0633 27.9543 37.9008 27.9636 38.0238C27.9742 38.1626 27.9866 38.2963 28.0009 38.4248C28.1558 39.8246 28.2112 39.9429 28.3071 40.3897C28.4556 41.0812 29.0712 45.1202 29.0712 45.1202C29.0712 45.1202 29.5193 45.2238 29.5193 45.5893C29.5193 45.9548 30.0134 46.6894 29.7899 47.1067C29.5654 47.525 30.0134 47.4204 29.7333 47.6813Z" fill="#B6000D"/>
<path d="M22.1084 31.8706C23.5759 31.8706 24.7656 30.7626 24.7656 29.3958C24.7656 28.0289 23.5759 26.9209 22.1084 26.9209C20.6409 26.9209 19.4512 28.0289 19.4512 29.3958C19.4512 30.7626 20.6409 31.8706 22.1084 31.8706Z" fill="#FFB8B8"/>
<path d="M16.3824 34.5966C15.8201 34.411 15.2578 34.225 14.6955 34.0387C14.7924 33.8873 14.9159 33.752 15.0607 33.6384C15.5961 33.222 16.335 33.1468 17.0148 33.0063C17.6956 32.8659 18.4346 32.5779 18.6834 31.9719C18.9419 31.3419 18.5671 30.6616 18.3495 30.0195C18.0281 29.1189 18.0671 28.1404 18.4593 27.2645C18.6597 26.8319 18.9644 26.4481 19.3498 26.1429C19.7352 25.8377 20.191 25.6193 20.6817 25.5047C21.6662 25.301 22.779 25.6331 23.3844 26.3836C23.7744 26.2746 24.1938 26.3024 24.5634 26.4618C24.9329 26.6211 25.227 26.9009 25.3902 27.2484C25.467 27.4113 25.5011 27.5888 25.4899 27.7664C25.4787 27.9439 25.4223 28.1165 25.3256 28.2698C25.1155 28.5658 24.6663 28.7173 24.328 28.5527L24.5241 28.0892C23.9176 28.2808 23.5234 29.3022 23.6052 29.8941C23.686 30.4851 24.0566 31.0028 24.4325 31.4853C24.8085 31.9679 25.2092 32.4555 25.3708 33.0324C25.6035 33.8621 25.2889 34.7691 24.7072 35.4343C24.1255 36.0995 23.3058 36.551 22.4569 36.8831C21.8215 37.1319 21.1612 37.3214 20.4856 37.4489C20.6062 37.2302 20.7258 37.0115 20.8465 36.7928L19.4148 37.5994C19.138 37.6245 18.859 37.6396 18.58 37.6446C17.7678 37.6576 16.9394 37.5784 16.1961 37.2764C15.4517 36.9734 14.7979 36.4246 14.5285 35.7112C14.4422 35.4805 14.4013 35.2371 14.4079 34.9929C15.0661 34.8604 15.7243 34.7283 16.3824 34.5966Z" fill="#2F2E41"/>
<path d="M42.0608 79.8584H37.1325L37.1114 79.8226C37.0483 79.7162 36.9875 79.6034 36.9307 79.4875C36.423 78.4753 36.2085 77.3176 36.0191 76.2962L35.8766 75.5264C35.8593 75.4331 35.8723 75.3372 35.9139 75.2509C35.9555 75.1646 36.0238 75.0918 36.1101 75.0418C36.1964 74.9919 36.2967 74.9671 36.3982 74.9705C36.4998 74.974 36.5979 75.0056 36.68 75.0613C37.4289 75.5689 38.1782 76.076 38.9277 76.5826C39.2115 76.7749 39.5357 76.9975 39.8461 77.2381C39.876 77.1026 39.9074 76.9667 39.9387 76.8327C39.9603 76.7402 40.011 76.6558 40.0844 76.5903C40.1578 76.5248 40.2506 76.4812 40.3507 76.4651C40.4509 76.449 40.554 76.461 40.6467 76.4998C40.7395 76.5385 40.8177 76.6021 40.8714 76.6825L41.448 77.5454C41.8686 78.1755 42.2397 78.7964 42.1641 79.466C42.1645 79.4742 42.1638 79.4823 42.1622 79.4903C42.147 79.6003 42.119 79.7085 42.0785 79.8128L42.0608 79.8584Z" fill="#F0F0F0"/>
<path d="M47.0069 79.9573L0.175793 79.9998C0.129076 79.9995 0.0843668 79.9821 0.0514281 79.9512C0.0184895 79.9204 0 79.8786 0 79.8351C0 79.7916 0.0184895 79.7499 0.0514281 79.719C0.0843668 79.6882 0.129076 79.6707 0.175793 79.6704L47.0069 79.6279C47.0536 79.6281 47.0984 79.6456 47.1313 79.6765C47.1643 79.7073 47.1828 79.7491 47.1828 79.7926C47.1828 79.8361 47.1643 79.8779 47.1313 79.9088C47.0984 79.9396 47.0536 79.9571 47.0069 79.9573Z" fill="#CACACA"/>
</g>
<defs>
<clipPath id="clip0_1133_1540">
<rect width="80" height="80" fill="white"/>
</clipPath>
</defs>
</svg>
